<svg width="32" height="32" viewBox="0 0 32 32" fill="none" xmlns="http://www.w3.org/2000/svg">
<path d="M7.00406 9.41324C7.03549 9.10401 6.9169 8.79839 6.6847 8.59024L4.31933 5.75662V5.33331H11.6639L17.3408 17.7142L22.3318 5.33331H29.3333V5.75662L27.3109 7.68485C27.1365 7.81701 27.0501 8.03424 27.0862 8.24924V22.4174C27.0501 22.6324 27.1365 22.8496 27.3109 22.9818L29.286 24.91V25.3333H19.3514V24.91L21.3974 22.9347C21.5985 22.7349 21.5985 22.6761 21.5985 22.3703V10.9182L15.9098 25.2863H15.141L8.51788 10.9182V20.5479C8.4627 20.9528 8.59792 21.3603 8.8845 21.6532L11.5456 24.863V25.2863H4V24.863L6.66103 21.6532C6.94563 21.3599 7.07293 20.9495 7.00406 20.5479V9.41324Z" fill="black"/>
</svg>
