<svg width="32" height="32" viewBox="0 0 32 32" fill="none" xmlns="http://www.w3.org/2000/svg">
<path d="M16 19C17.6569 19 19 17.6569 19 16C19 14.3431 17.6569 13 16 13C14.3431 13 13 14.3431 13 16C13 17.6569 14.3431 19 16 19Z" fill="black"/>
<path fill-rule="evenodd" clip-rule="evenodd" d="M30 16L24.5348 21.4652C19.8212 26.1788 12.1788 26.1788 7.46522 21.4652L2 16L7.46522 10.5347C12.1789 5.8211 19.8212 5.82111 24.5348 10.5347L30 16ZM16 21C18.7614 21 21 18.7614 21 16C21 13.2386 18.7614 11 16 11C13.2386 11 11 13.2386 11 16C11 18.7614 13.2386 21 16 21Z" fill="black"/>
</svg>
