<svg width="32" height="32" viewBox="0 0 32 32" fill="none" xmlns="http://www.w3.org/2000/svg">
<path fill-rule="evenodd" clip-rule="evenodd" d="M21 16C21 18.7614 18.7614 21 16 21C13.2386 21 11 18.7614 11 16C11 13.2386 13.2386 11 16 11C18.7614 11 21 13.2386 21 16ZM19 16C19 17.6569 17.6569 19 16 19C14.3431 19 13 17.6569 13 16C13 14.3431 14.3431 13 16 13C17.6569 13 19 14.3431 19 16Z" fill="black"/>
<path fill-rule="evenodd" clip-rule="evenodd" d="M24.5348 21.4652L30 16L24.5348 10.5347C19.8212 5.82111 12.1789 5.8211 7.46522 10.5347L2 16L7.46522 21.4652C12.1788 26.1788 19.8212 26.1788 24.5348 21.4652ZM23.1206 11.9489L27.1716 16L23.1206 20.051C19.188 23.9835 12.812 23.9835 8.87943 20.051L4.82843 16L8.87944 11.9489C12.812 8.01637 19.188 8.01637 23.1206 11.9489Z" fill="black"/>
</svg>
