<svg width="32" height="32" viewBox="0 0 32 32" fill="none" xmlns="http://www.w3.org/2000/svg">
<path d="M12.004 5.004L12.004 12.004L5.004 12.004V10.004H8.58978L4 5.41421L5.41421 4L10.004 8.58978V5.004H12.004Z" fill="black"/>
<path d="M5.00399 20L12.004 20L12.004 27H10.004L10.004 23.4142L5.41421 28.004L4 26.5898L8.58978 22H5.004L5.00399 20Z" fill="black"/>
<path d="M20 12.004V5.004H22V8.58978L26.5898 4L28.004 5.41421L23.4142 10.004H27V12.004L20 12.004Z" fill="black"/>
<path d="M27 20L20 20L20 27H22V23.4142L26.5898 28.004L28.004 26.5898L23.4142 22L27 22V20Z" fill="black"/>
</svg>
