<svg width="32" height="32" viewBox="0 0 32 32" fill="none" xmlns="http://www.w3.org/2000/svg">
<path d="M14.9102 5.04044C19.5999 4.32465 24.2984 3.65045 28.997 3C29 7.10761 28.997 11.2122 29 15.3199C24.3044 15.3377 19.6088 15.409 14.9102 15.4238C14.9072 11.9607 14.9072 8.50057 14.9102 5.04044ZM3 6.69774C6.53138 6.15422 10.0779 5.68494 13.6242 5.2424C13.6272 8.64908 13.6272 12.0528 13.6302 15.4594C10.0869 15.4565 6.54329 15.5099 3 15.501V6.69774ZM3 16.5732C6.54061 16.5613 10.0806 16.6178 13.6209 16.6118C13.6209 20.0274 13.6299 23.443 13.6242 26.8586C10.0869 26.3356 6.54329 25.8785 3 25.4003V16.5732ZM14.8894 16.7098H28.997C29.003 20.8056 28.997 24.9013 28.997 29C24.3074 28.2991 19.6088 27.6486 14.9102 27.0133C14.9043 23.5796 14.8953 20.1462 14.8894 16.7098Z" fill="black"/>
</svg>
