<svg width="32" height="32" viewBox="0 0 32 32" fill="none" xmlns="http://www.w3.org/2000/svg">
<path fill-rule="evenodd" clip-rule="evenodd" d="M15.9095 5.89996C15.9075 8.73921 15.9075 11.5786 15.9094 14.4198C18.0059 14.4099 20.0669 14.3906 22.1303 14.3713C24.0741 14.353 26.0199 14.3348 27.9994 14.3244C27.9985 12.6025 27.9985 10.881 27.9985 9.15993C27.9985 7.48932 27.9985 5.81899 27.9977 4.14835C23.9649 4.71003 19.9337 5.29013 15.9095 5.89996ZM27.9971 3.13879C23.6319 3.74631 19.2672 4.37543 14.9102 5.04044C14.9075 8.1675 14.9073 11.2946 14.9094 14.4238C14.9097 14.7571 14.9099 15.0904 14.9102 15.4238C15.2436 15.4228 15.5769 15.4214 15.9102 15.4198C17.99 15.41 20.0693 15.3906 22.1483 15.3712C24.4324 15.3498 26.7162 15.3285 29 15.3199C28.9985 13.2661 28.9985 11.213 28.9985 9.15993C28.9985 7.44325 28.9985 5.72657 28.9976 4.00946C28.9975 3.67299 28.9973 3.3365 28.997 3C28.6637 3.04614 28.3304 3.0924 27.9971 3.13879ZM4 7.55705V14.502C5.5349 14.5013 7.04658 14.4911 8.56182 14.4808C9.90858 14.4716 11.2582 14.4625 12.6294 14.46C12.6284 13.0903 12.6278 11.7212 12.6272 10.3521C12.6266 9.02693 12.626 7.70113 12.6251 6.37579C9.74312 6.74047 6.86591 7.12567 4 7.55705ZM12.6243 5.36793C9.41142 5.77381 6.19948 6.2053 3 6.69774V15.501C4.86022 15.5057 6.72052 15.4932 8.58082 15.4807C9.93061 15.4716 11.2804 15.4625 12.6302 15.46C12.9635 15.4594 13.2968 15.4592 13.6302 15.4594C13.6299 15.1261 13.6296 14.7928 13.6294 14.4594C13.6284 13.0894 13.6278 11.7198 13.6272 10.3501C13.6266 8.98356 13.626 7.61701 13.625 6.25007C13.6248 5.91421 13.6245 5.57832 13.6242 5.2424C13.2909 5.284 12.9576 5.32582 12.6243 5.36793ZM4 17.5715V24.5258C4.56038 24.601 5.1212 24.6758 5.68234 24.7508C7.99406 25.0594 10.3112 25.3688 12.6256 25.7023C12.627 23.9701 12.6252 22.2387 12.6235 20.5063C12.6226 19.542 12.6216 18.5773 12.6212 17.612C11.2394 17.6103 9.88402 17.6011 8.53179 17.5918C7.02804 17.5816 5.52814 17.5714 4 17.5715ZM12.6209 16.612C11.2646 16.6102 9.90832 16.6011 8.55201 16.5919C6.70142 16.5795 4.85079 16.567 3 16.5732V25.4003C3.85168 25.5152 4.70338 25.6289 5.555 25.7426C7.91269 26.0574 10.2698 26.3722 12.6244 26.7125C12.9577 26.7606 13.291 26.8093 13.6242 26.8586C13.6248 26.5217 13.6252 26.1848 13.6255 25.8479C13.627 24.0663 13.6253 22.2847 13.6235 20.5031C13.6226 19.5393 13.6216 18.5756 13.6212 17.6118C13.621 17.2785 13.6209 16.9452 13.6209 16.6118C13.2876 16.6124 12.9543 16.6124 12.6209 16.612ZM14.8912 17.7098C14.8906 17.3765 14.8899 17.0432 14.8894 16.7098H28.997C29.001 19.4401 28.9997 22.1704 28.9983 24.9015C28.9978 25.9305 28.9973 26.9596 28.9971 27.9889C28.9971 28.3259 28.997 28.663 28.997 29C28.6637 28.9502 28.3304 28.9006 27.997 28.8513C23.6395 28.2067 19.2749 27.6035 14.9102 27.0133C14.9072 25.2981 14.9035 23.583 14.8998 21.8676C14.8968 20.482 14.8938 19.0961 14.8912 17.7098ZM15.9086 26.1394C19.9383 26.686 23.9702 27.2456 27.9972 27.8405C27.9974 26.8598 27.9979 25.8795 27.9983 24.8995C27.9995 22.502 28.0007 20.1061 27.9982 17.7098H15.8912C15.8938 19.0936 15.8968 20.4771 15.8998 21.8604L15.8998 21.8616C15.9029 23.2876 15.906 24.7135 15.9086 26.1394Z" fill="black"/>
</svg>
