<svg width="32" height="32" viewBox="0 0 32 32" fill="none" xmlns="http://www.w3.org/2000/svg">
<path fill-rule="evenodd" clip-rule="evenodd" d="M16 30C8.26801 30 2 23.732 2 16C2 8.26801 8.26801 2 16 2C23.732 2 30 8.26801 30 16C30 23.732 23.732 30 16 30ZM16 9C19.85 9 23 12.15 23 16C23 19.5 20.4625 22.475 16.9625 23V18.0125H18.625L18.975 16H17.05V14.6875C17.05 14.1625 17.3125 13.6375 18.1875 13.6375H19.0625V11.8875C19.0625 11.8875 18.275 11.7125 17.4875 11.7125C15.9125 11.7125 14.8625 12.675 14.8625 14.425V16H13.1125V18.0125H14.8625V22.9125C11.5375 22.3875 9 19.5 9 16C9 12.15 12.15 9 16 9Z" fill="black"/>
</svg>
