<svg width="32" height="32" viewBox="0 0 32 32" fill="none" xmlns="http://www.w3.org/2000/svg">
<path fill-rule="evenodd" clip-rule="evenodd" d="M26.9554 6.59967C28.1548 6.92257 29.1004 7.8682 29.4233 9.06753C30.0229 11.2586 29.9999 15.8253 29.9999 15.8253C29.9999 15.8253 29.9999 20.369 29.4233 22.5601C29.1004 23.7594 28.1548 24.705 26.9554 25.0279C24.7643 25.6045 15.9999 25.6045 15.9999 25.6045C15.9999 25.6045 7.25863 25.6045 5.04447 25.0049C3.84513 24.682 2.8995 23.7363 2.5766 22.537C2 20.369 2 15.8023 2 15.8023C2 15.8023 2 11.2586 2.5766 9.06753C2.8995 7.8682 3.8682 6.8995 5.04447 6.5766C7.23556 6 15.9999 6 15.9999 6C15.9999 6 24.7643 6 26.9554 6.59967ZM20.4977 15.8023L13.2094 20V11.6046L20.4977 15.8023Z" fill="black"/>
</svg>
