<svg width="32" height="32" viewBox="0 0 32 32" fill="none" xmlns="http://www.w3.org/2000/svg">
<path d="M14.6 13.8999V18.0999L18.275 15.9999L14.6 13.8999Z" fill="black"/>
<path fill-rule="evenodd" clip-rule="evenodd" d="M16 30C8.26801 30 2 23.732 2 16C2 8.26801 8.26801 2 16 2C23.732 2 30 8.26801 30 16C30 23.732 23.732 30 16 30ZM21.425 11.3624C22.0375 11.5374 22.475 11.9749 22.65 12.5874C23 13.7249 23 15.9999 23 15.9999C23 15.9999 23 18.2749 22.7375 19.4124C22.5625 20.0249 22.125 20.4624 21.5125 20.6374C20.375 20.8999 16 20.8999 16 20.8999C16 20.8999 11.5375 20.8999 10.4875 20.6374C9.875 20.4624 9.4375 20.0249 9.2625 19.4124C9 18.2749 9 15.9999 9 15.9999C9 15.9999 9 13.7249 9.175 12.5874C9.35 11.9749 9.78751 11.5374 10.4 11.3624C11.5375 11.0999 15.9125 11.0999 15.9125 11.0999C15.9125 11.0999 20.375 11.0999 21.425 11.3624Z" fill="black"/>
</svg>
