<svg width="32" height="32" viewBox="0 0 32 32" fill="none" xmlns="http://www.w3.org/2000/svg">
<path fill-rule="evenodd" clip-rule="evenodd" d="M5.33333 0C2.38781 0 0 2.38782 0 5.33333V26.6667C0 29.6122 2.38782 32 5.33333 32C8.27885 32 26.6667 32 26.6667 32C29.6122 32 32 29.6122 32 26.6667V5.33333C32 2.38781 29.6122 0 26.6667 0H5.33333ZM10.9922 9.57803V5.74784H12.9922V12.9922H5.74784V10.9922H9.57803L4 5.41421L5.41421 4L10.9922 9.57803ZM5.74784 21.3181H9.57803L4 26.8961L5.41421 28.3103L10.9922 22.7323V26.5625H12.9922V19.3181H5.74784V21.3181ZM26.5625 21.3181H22.7323L28.3103 26.8961L26.8961 28.3103L21.3181 22.7323V26.5625H19.3181V19.3181H26.5625V21.3181ZM22.7323 10.9922H26.5625V12.9922H19.3181V5.74784H21.3181V9.57803L26.8961 4L28.3103 5.41421L22.7323 10.9922Z" fill="black"/>
</svg>
