<svg width="32" height="32" viewBox="0 0 32 32" fill="none" xmlns="http://www.w3.org/2000/svg">
<path d="M15 9V13H19V15H15V19H13V15H9V13H13V9H15Z" fill="black"/>
<path fill-rule="evenodd" clip-rule="evenodd" d="M14 24C16.4013 24 18.6049 23.1536 20.3287 21.7429L26.5811 27.9953L27.9953 26.5811L21.7429 20.3287C23.1536 18.6049 24 16.4013 24 14C24 8.47715 19.5228 4 14 4C8.47715 4 4 8.47715 4 14C4 19.5228 8.47715 24 14 24ZM14 22C18.4183 22 22 18.4183 22 14C22 9.58172 18.4183 6 14 6C9.58172 6 6 9.58172 6 14C6 18.4183 9.58172 22 14 22Z" fill="black"/>
</svg>
