<svg width="32" height="32" viewBox="0 0 32 32" fill="none" xmlns="http://www.w3.org/2000/svg">
<path fill-rule="evenodd" clip-rule="evenodd" d="M30 16C30 23.732 23.732 30 16 30C8.26801 30 2 23.732 2 16C2 8.26801 8.26801 2 16 2C23.732 2 30 8.26801 30 16ZM16.0018 11.5257L12.8295 14.6967L10.9834 12.8519L16.0018 7.83362L21.0203 12.8532L19.1755 14.6993L16.0018 11.5257ZM9.67906 14.1551L7.83362 16.0005L9.67906 17.8459L11.5245 16.0005L9.67906 14.1551ZM12.8295 17.3039L16.0019 20.4761L19.1755 17.3026L21.0216 19.146L16.0019 24.1669L10.9808 19.1473L12.8295 17.3039ZM22.3215 14.1557L20.476 16.0011L22.3215 17.8465L24.1669 16.0011L22.3215 14.1557ZM17.8738 15.9997L16.0019 14.1265L14.6176 15.5107L14.4576 15.6694L14.1274 15.9997L14.13 16.0035L16.0019 17.8741L17.8751 15.9997H17.8738Z" fill="black"/>
</svg>
