<svg width="32" height="32" viewBox="0 0 32 32" fill="none" xmlns="http://www.w3.org/2000/svg">
<path d="M2 15.9978C2.00079 19.3317 3.19066 22.5559 5.35575 25.0911C7.52083 27.6262 10.5192 29.306 13.8118 29.8284V20.0438H10.26V15.9978H13.816V12.9178C13.7375 12.197 13.8187 11.4676 14.0537 10.7817C14.2888 10.0957 14.6721 9.46992 15.1763 8.94875C15.6805 8.42758 16.2933 8.02383 16.9711 7.76616C17.6489 7.50849 18.3751 7.40323 19.0982 7.45785C20.1482 7.47465 21.1982 7.56845 22.2342 7.73785V11.1804H20.4646C20.1638 11.1411 19.8581 11.1698 19.5699 11.2644C19.2817 11.3591 19.0185 11.5173 18.7997 11.7274C18.5809 11.9375 18.4121 12.194 18.3057 12.4781C18.1994 12.7622 18.1583 13.0665 18.1854 13.3686V15.9978H22.0648L21.4446 20.0452H18.1854V29.8284C20.8281 29.4108 23.2957 28.2447 25.2962 26.4681C27.2967 24.6916 28.7463 22.379 29.4733 19.8042C30.2002 17.2294 30.1742 14.5002 29.3983 11.9397C28.6223 9.37924 27.1289 7.09473 25.0949 5.35665C23.0609 3.61856 20.5715 2.4997 17.9213 2.13253C15.2712 1.76536 12.5713 2.16526 10.1414 3.28487C7.71142 4.40449 5.65318 6.19693 4.21033 8.45C2.76747 10.7031 2.00042 13.3224 2 15.9978Z" fill="black"/>
</svg>
