<svg width="32" height="32" viewBox="0 0 32 32" fill="none" xmlns="http://www.w3.org/2000/svg">
<path d="M6.33333 12.4444C6.33333 9.72393 8.53875 7.51852 11.2593 7.51852C12.87 7.51852 14.3001 8.29055 15.2005 9.48899L16 10.5531L16.7995 9.48899C17.6999 8.29055 19.13 7.51852 20.7407 7.51852C23.4613 7.51852 25.6667 9.72393 25.6667 12.4444C25.6667 14.4204 24.8217 16.302 23.3448 17.6148L16 24.1435L8.65515 17.6148C7.17831 16.302 6.33333 14.4204 6.33333 12.4444Z" fill="black"/>
<path fill-rule="evenodd" clip-rule="evenodd" d="M5.33333 0C2.38781 0 0 2.38782 0 5.33333V26.6667C0 29.6122 2.38782 32 5.33333 32H26.6667C29.6122 32 32 29.6122 32 26.6667V5.33333C32 2.38781 29.6122 0 26.6667 0H5.33333ZM11.2593 5.51852C7.43418 5.51852 4.33333 8.61936 4.33333 12.4444C4.33333 14.9917 5.42261 17.4173 7.32642 19.1096L16 26.8194L24.6736 19.1096C26.5774 17.4173 27.6667 14.9917 27.6667 12.4444C27.6667 8.61936 24.5658 5.51852 20.7407 5.51852C18.9062 5.51852 17.2383 6.23245 16 7.39538C14.7617 6.23245 13.0938 5.51852 11.2593 5.51852Z" fill="black"/>
</svg>
