<svg width="32" height="32" viewBox="0 0 32 32" fill="none" xmlns="http://www.w3.org/2000/svg">
<path d="M14.9021 10C14.9021 10.4774 14.7125 10.9352 14.3749 11.2728C14.0373 11.6104 13.5795 11.8 13.1021 11.8C12.6247 11.8 12.1669 11.6104 11.8293 11.2728C11.4917 10.9352 11.3021 10.4774 11.3021 10C11.3021 9.52262 11.4917 9.06479 11.8293 8.72722C12.1669 8.38965 12.6247 8.20001 13.1021 8.20001C13.5795 8.20001 14.0373 8.38965 14.3749 8.72722C14.7125 9.06479 14.9021 9.52262 14.9021 10Z" fill="black"/>
<path d="M9.4001 17.2C9.87749 17.2 10.3353 17.0104 10.6729 16.6728C11.0105 16.3352 11.2001 15.8774 11.2001 15.4C11.2001 14.9226 11.0105 14.4648 10.6729 14.1272C10.3353 13.7897 9.87749 13.6 9.4001 13.6C8.92271 13.6 8.46487 13.7897 8.12731 14.1272C7.78974 14.4648 7.6001 14.9226 7.6001 15.4C7.6001 15.8774 7.78974 16.3352 8.12731 16.6728C8.46487 17.0104 8.92271 17.2 9.4001 17.2Z" fill="black"/>
<path d="M23.8729 16.6728C23.5353 17.0104 23.0775 17.2 22.6001 17.2C22.1227 17.2 21.6649 17.0104 21.3273 16.6728C20.9897 16.3352 20.8001 15.8774 20.8001 15.4C20.8001 14.9226 20.9897 14.4648 21.3273 14.1272C21.6649 13.7897 22.1227 13.6 22.6001 13.6C23.0775 13.6 23.5353 13.7897 23.8729 14.1272C24.2105 14.4648 24.4001 14.9226 24.4001 15.4C24.4001 15.8774 24.2105 16.3352 23.8729 16.6728Z" fill="black"/>
<path d="M19.0001 11.8C19.2365 11.8 19.4705 11.7535 19.6889 11.663C19.9073 11.5725 20.1057 11.4399 20.2729 11.2728C20.44 11.1057 20.5726 10.9072 20.6631 10.6888C20.7535 10.4705 20.8001 10.2364 20.8001 10C20.8001 9.76363 20.7535 9.52957 20.6631 9.31118C20.5726 9.0928 20.44 8.89437 20.2729 8.72722C20.1057 8.56007 19.9073 8.42749 19.6889 8.33703C19.4705 8.24657 19.2365 8.20001 19.0001 8.20001C18.5227 8.20001 18.0649 8.38965 17.7273 8.72722C17.3897 9.06479 17.2001 9.52262 17.2001 10C17.2001 10.4774 17.3897 10.9352 17.7273 11.2728C18.0649 11.6104 18.5227 11.8 19.0001 11.8Z" fill="black"/>
<path fill-rule="evenodd" clip-rule="evenodd" d="M28 16C28 22.1884 24.0604 21.6796 20.6968 21.244C18.7552 20.9932 17.0068 20.7676 16.3144 21.8656C15.8404 22.6168 16.3528 23.5528 16.9804 24.1804C17.1668 24.3668 17.3147 24.5881 17.4156 24.8317C17.5165 25.0753 17.5684 25.3364 17.5684 25.6C17.5684 25.8636 17.5165 26.1247 17.4156 26.3683C17.3147 26.6119 17.1668 26.8332 16.9804 27.0196C16.3528 27.6472 15.4984 28.0228 14.6164 27.9208C8.6404 27.2344 4 22.1596 4 16C4 9.3724 9.3724 4 16 4C22.6276 4 28 9.3724 28 16ZM14.8462 25.934L14.8446 25.9339C9.86645 25.3621 6 21.1315 6 16C6 10.477 10.477 6 16 6C21.523 6 26 10.477 26 16C26 17.3566 25.7807 18.1369 25.5554 18.5726C25.3565 18.9572 25.1211 19.1416 24.8334 19.2628C24.4903 19.4073 23.9944 19.4892 23.2861 19.4789C22.578 19.4685 21.8164 19.3723 20.9537 19.2606L20.8503 19.2472C19.9595 19.1318 18.8714 18.9909 17.9082 19.0532C16.898 19.1184 15.4785 19.4421 14.623 20.7983C13.9613 21.847 14.0654 22.9547 14.354 23.7509C14.6312 24.5156 15.1182 25.1467 15.5662 25.5946C15.5669 25.5953 15.5675 25.5962 15.5678 25.5971C15.5682 25.598 15.5684 25.599 15.5684 25.6C15.5684 25.601 15.5682 25.602 15.5678 25.6029L15.5662 25.6054C15.2774 25.8941 15.0019 25.952 14.8462 25.934Z" fill="black"/>
</svg>
