<svg width="32" height="32" viewBox="0 0 32 32" fill="none" xmlns="http://www.w3.org/2000/svg">
<path d="M16 20C15.2088 20 14.4355 19.7654 13.7777 19.3258C13.1199 18.8863 12.6072 18.2616 12.3045 17.5307C12.0017 16.7998 11.9225 15.9955 12.0768 15.2196C12.2312 14.4437 12.6121 13.731 13.1715 13.1715C13.731 12.6121 14.4437 12.2312 15.2196 12.0768C15.9955 11.9225 16.7998 12.0017 17.5307 12.3045C18.2616 12.6072 18.8863 13.1199 19.3258 13.7777C19.7654 14.4355 20 15.2088 20 16C20 17.0608 19.5785 18.0782 18.8284 18.8284C18.0783 19.5785 17.0608 20 16 20Z" fill="black"/>
<path fill-rule="evenodd" clip-rule="evenodd" d="M11.0524 4.0722C12.3323 4.0138 12.741 4 16 4C19.259 4 19.6677 4.0138 20.9471 4.0727C21.9426 4.09264 22.9275 4.28125 23.86 4.6305C24.6572 4.93876 25.3812 5.41017 25.9857 6.01452C26.5901 6.61887 27.0616 7.34283 27.37 8.14C27.7192 9.07229 27.9078 10.057 27.9278 11.0524C27.9862 12.3323 28 12.741 28 16C28 19.259 27.9862 19.6677 27.9283 20.9471C27.9084 21.9426 27.7198 22.9275 27.3705 23.86C27.0622 24.6573 26.5907 25.3813 25.9863 25.9858C25.3818 26.5902 24.6578 27.0617 23.8605 27.37C22.928 27.7193 21.9431 27.9079 20.9476 27.9278C19.6677 27.9862 19.259 28 16 28C12.741 28 12.3323 27.9862 11.0529 27.9283C10.0574 27.9084 9.07245 27.7198 8.14 27.3705C7.34273 27.0622 6.61868 26.5907 6.01424 25.9863C5.4098 25.3818 4.93831 24.6578 4.63 23.8605C4.28075 22.928 4.09214 21.9431 4.0722 20.9476C4.0138 19.6677 4 19.259 4 16C4 12.741 4.0138 12.3323 4.0722 11.0529C4.09213 10.0574 4.28073 9.07245 4.63 8.14C4.93831 7.34273 5.4098 6.61868 6.01424 6.01424C6.61868 5.4098 7.34273 4.93831 8.14 4.63C9.07229 4.28079 10.057 4.09218 11.0524 4.0722ZM22.4056 11.0344C23.2009 11.0344 23.8456 10.3897 23.8456 9.59442C23.8456 8.79913 23.2009 8.15442 22.4056 8.15442C21.6103 8.15442 20.9656 8.79913 20.9656 9.59442C20.9656 10.3897 21.6103 11.0344 22.4056 11.0344ZM16 9.83777C14.7812 9.83777 13.5898 10.1992 12.5764 10.8763C11.5631 11.5534 10.7732 12.5158 10.3068 13.6418C9.84044 14.7678 9.71841 16.0068 9.95618 17.2022C10.1939 18.3975 10.7808 19.4955 11.6426 20.3573C12.5044 21.2191 13.6024 21.806 14.7978 22.0438C15.9931 22.2815 17.2321 22.1595 18.3581 21.6931C19.4841 21.2267 20.4465 20.4369 21.1237 19.4235C21.8008 18.4101 22.1622 17.2187 22.1622 16C22.1622 14.3657 21.5129 12.7983 20.3573 11.6426C19.2017 10.487 17.6343 9.83777 16 9.83777Z" fill="black"/>
</svg>
