<svg width="32" height="32" viewBox="0 0 32 32" fill="none" xmlns="http://www.w3.org/2000/svg">
<path fill-rule="evenodd" clip-rule="evenodd" d="M16 30C23.732 30 30 23.732 30 16C30 8.26801 23.732 2 16 2C8.26801 2 2 8.26801 2 16C2 23.732 8.26801 30 16 30ZM27.6219 19C27.8687 18.0411 28 17.0359 28 16C28 14.9641 27.8687 13.9589 27.6219 13H21.8702C21.9554 13.9679 22 14.9721 22 16C22 17.0279 21.9554 18.0321 21.8702 19H27.6219ZM26.9119 21C25.5002 24.0759 22.8262 26.452 19.5532 27.4652C19.895 26.8952 20.2002 26.2499 20.4689 25.5514C20.9702 24.248 21.3657 22.7033 21.6291 21H26.9119ZM19.862 19C19.9519 18.0424 20 17.0378 20 16C20 14.9622 19.9519 13.9576 19.862 13H12.138C12.0481 13.9576 12 14.9622 12 16C12 17.0378 12.0481 18.0424 12.138 19H19.862ZM12.3965 21H19.6035C19.3612 22.4539 19.0179 23.7525 18.6022 24.8334C18.1756 25.9425 17.6922 26.7713 17.2064 27.3056C16.7208 27.8396 16.3117 28 16 28C15.6883 28 15.2792 27.8396 14.7936 27.3056C14.3078 26.7713 13.8244 25.9425 13.3978 24.8334C12.9821 23.7525 12.6388 22.4539 12.3965 21ZM10.1298 19C10.0446 18.0321 10 17.0279 10 16C10 14.9721 10.0446 13.9679 10.1298 13H4.37805C4.13126 13.9589 4 14.9641 4 16C4 17.0359 4.13126 18.0411 4.37805 19H10.1298ZM5.08808 21H10.3709C10.6343 22.7033 11.0298 24.248 11.5311 25.5514C11.7998 26.2499 12.105 26.8952 12.4468 27.4652C9.17381 26.452 6.4998 24.0759 5.08808 21ZM21.6291 11H26.9119C25.5002 7.92413 22.8262 5.54796 19.5532 4.53476C19.895 5.10475 20.2002 5.7501 20.4689 6.44863C20.9702 7.75199 21.3657 9.29674 21.6291 11ZM18.6022 7.16659C19.0179 8.24749 19.3612 9.54611 19.6035 11H12.3965C12.6388 9.54611 12.9821 8.24749 13.3978 7.16659C13.8244 6.05754 14.3078 5.22865 14.7936 4.69438C15.2792 4.16039 15.6883 4 16 4C16.3117 4 16.7208 4.16039 17.2064 4.69438C17.6922 5.22865 18.1756 6.05754 18.6022 7.16659ZM11.5311 6.44863C11.0298 7.75199 10.6343 9.29674 10.3709 11H5.08808C6.4998 7.92413 9.17381 5.54796 12.4468 4.53476C12.105 5.10475 11.7998 5.7501 11.5311 6.44863Z" fill="black"/>
</svg>
