<svg width="32" height="32" viewBox="0 0 32 32" fill="none" xmlns="http://www.w3.org/2000/svg">
<path d="M4 4V11H6V7.41421L10.5898 12.004L12.004 10.5898L7.41421 6L11 6V4H4Z" fill="black"/>
<path d="M28.004 4V11H26.004V7.41421L21.4142 12.004L20 10.5898L24.5898 6L21.004 6V4H28.004Z" fill="black"/>
<path d="M4 21.004V28.004H11V26.004H7.41421L12.004 21.4142L10.5898 20L6 24.5898V21.004H4Z" fill="black"/>
<path d="M28.004 21.004V28.004H21.004V26.004H24.5898L20 21.4142L21.4142 20L26.004 24.5898V21.004H28.004Z" fill="black"/>
</svg>
