<svg width="32" height="32" viewBox="0 0 32 32" fill="none" xmlns="http://www.w3.org/2000/svg">
<path d="M16 6.10055C18.7337 3.36688 23.1659 3.36688 25.8995 6.10055C28.6332 8.83422 28.6332 13.2664 25.8995 16L21.6569 20.2427L20.2427 18.8285L24.4853 14.5858C26.4379 12.6332 26.4379 9.46738 24.4853 7.51476C22.5327 5.56214 19.3669 5.56214 17.4143 7.51476L13.1716 11.7574L11.7574 10.3432L16 6.10055Z" fill="black"/>
<path d="M20.2427 10.3432C20.6332 9.95266 21.2664 9.95266 21.6569 10.3432C22.0474 10.7337 22.0474 11.3669 21.6569 11.7574L11.7574 21.6569C11.3669 22.0474 10.7337 22.0474 10.3432 21.6569C9.95266 21.2664 9.95266 20.6332 10.3432 20.2427L20.2427 10.3432Z" fill="black"/>
<path d="M6.10055 25.8995C3.36688 23.1659 3.36688 18.7337 6.10055 16L10.3432 11.7574L11.7574 13.1716L7.51476 17.4143C5.56214 19.3669 5.56214 22.5327 7.51476 24.4853C9.46738 26.4379 12.6332 26.4379 14.5858 24.4853L18.8285 20.2427L20.2427 21.6569L16 25.8995C13.2664 28.6332 8.83422 28.6332 6.10055 25.8995Z" fill="black"/>
</svg>
