<svg width="32" height="32" viewBox="0 0 32 32" fill="none" xmlns="http://www.w3.org/2000/svg">
<path d="M22.8715 12.8296L25.2048 8.73338C25.2674 8.62067 25.2837 8.48749 25.2502 8.36268C25.2167 8.23787 25.1361 8.13147 25.0258 8.06652C24.9155 8.00157 24.7845 7.98328 24.661 8.01563C24.5376 8.04798 24.4317 8.12835 24.3662 8.23936L22.0058 12.3836C20.1216 11.5243 18.0793 11.08 16.0135 11.08C13.9477 11.08 11.9054 11.5243 10.0213 12.3836L7.66087 8.23936C7.5954 8.12835 7.48947 8.04798 7.36602 8.01563C7.24256 7.98328 7.11152 8.00157 7.00125 8.06652C6.89099 8.13147 6.81037 8.23787 6.77687 8.36268C6.74336 8.48749 6.75965 8.62067 6.82222 8.73338L9.15556 12.8296C5.1314 15.039 2.39903 19.149 2 24H30C29.601 19.149 26.8618 15.039 22.8715 12.8296ZM9.56135 19.9518C9.33128 19.9518 9.10637 19.8826 8.91507 19.7529C8.72377 19.6232 8.57466 19.4389 8.48662 19.2232C8.39857 19.0076 8.37553 18.7703 8.42042 18.5414C8.46531 18.3124 8.5761 18.1022 8.73879 17.9371C8.90147 17.7721 9.10875 17.6597 9.33441 17.6141C9.56006 17.5686 9.79396 17.592 10.0065 17.6813C10.2191 17.7706 10.4008 17.9219 10.5286 18.1159C10.6564 18.31 10.7246 18.5382 10.7246 18.7716C10.7246 19.0846 10.6021 19.3848 10.3839 19.6061C10.1658 19.8274 9.86988 19.9518 9.56135 19.9518ZM22.4522 19.9518C22.2221 19.9518 21.9972 19.8826 21.8059 19.7529C21.6146 19.6232 21.4655 19.4389 21.3774 19.2232C21.2894 19.0076 21.2664 18.7703 21.3112 18.5414C21.3561 18.3124 21.4669 18.1022 21.6296 17.9371C21.7923 17.7721 21.9996 17.6597 22.2252 17.6141C22.4509 17.5686 22.6848 17.592 22.8973 17.6813C23.1099 17.7706 23.2916 17.9219 23.4194 18.1159C23.5472 18.31 23.6155 18.5382 23.6155 18.7716C23.6155 19.0846 23.4929 19.3848 23.2747 19.6061C23.0566 19.8274 22.7607 19.9518 22.4522 19.9518Z" fill="black"/>
</svg>
