<svg width="32" height="32" viewBox="0 0 32 32" fill="none" xmlns="http://www.w3.org/2000/svg">
<mask id="path-1-inside-1_1873_74" fill="white">
<path fill-rule="evenodd" clip-rule="evenodd" d="M22.0058 12.3836C21.9976 12.3799 21.9893 12.3761 21.9811 12.3724C20.1038 11.5204 18.0703 11.08 16.0135 11.08C13.9568 11.08 11.9233 11.5204 10.046 12.3724C10.0377 12.3761 10.0295 12.3799 10.0213 12.3836L7.66087 8.23936C7.5954 8.12835 7.48947 8.04798 7.36601 8.01563C7.24256 7.98328 7.11152 8.00157 7.00125 8.06652C6.89098 8.13147 6.81037 8.23787 6.77687 8.36268C6.74459 8.48289 6.75852 8.61087 6.8155 8.72084C6.81768 8.72505 6.81992 8.72922 6.82222 8.73338L9.15555 12.8296C9.14766 12.834 9.13976 12.8383 9.13187 12.8427C9.01312 12.9082 8.89549 12.9753 8.77903 13.0441C5.23538 15.137 2.76232 18.7365 2.11661 23C2.06671 23.3295 2.02772 23.663 2 24H30C29.9723 23.663 29.9333 23.3295 29.8833 23C29.2318 18.7027 26.7211 15.08 23.1612 12.9947C23.0731 12.9431 22.9845 12.8924 22.8951 12.8428C22.8873 12.8384 22.8794 12.834 22.8715 12.8296L25.2046 8.73385C25.2069 8.7297 25.2094 8.72505 25.2116 8.72084C25.2685 8.61087 25.2825 8.48289 25.2502 8.36268C25.2167 8.23787 25.1361 8.13147 25.0258 8.06652C24.9155 8.00157 24.7845 7.98328 24.661 8.01563C24.5376 8.04798 24.4317 8.12835 24.3662 8.23936L22.0058 12.3836ZM24.7766 8.48947L24.7802 8.48353ZM24.7847 8.48764L24.7843 8.48596ZM21.897 13.4331L21.5908 13.2935C19.8366 12.4934 17.9358 12.08 16.0135 12.08C14.0913 12.08 12.1904 12.4934 10.4362 13.2935L10.1547 13.4219L9.63682 13.7062C6.20994 15.5877 3.787 18.959 3.12887 23H28.871C28.2121 18.9588 25.7855 15.5861 22.3871 13.7045L21.897 13.4331ZM7.2504 8.48948L7.24689 8.48353Z"/>
<path d="M8.91495 19.7529C9.10625 19.8825 9.33116 19.9518 9.56123 19.9518C9.86976 19.9518 10.1656 19.8274 10.3838 19.6061C10.602 19.3848 10.7245 19.0846 10.7245 18.7716C10.7245 18.5382 10.6563 18.31 10.5285 18.1159C10.4006 17.9219 10.219 17.7706 10.0064 17.6813C9.79384 17.5919 9.55994 17.5686 9.33429 17.6141C9.10863 17.6596 8.90136 17.772 8.73867 17.9371C8.57598 18.1021 8.46519 18.3124 8.4203 18.5414C8.37542 18.7703 8.39845 19.0076 8.4865 19.2232C8.57455 19.4389 8.72365 19.6232 8.91495 19.7529Z"/>
<path d="M21.8058 19.7529C21.9971 19.8825 22.222 19.9518 22.4521 19.9518C22.7606 19.9518 23.0565 19.8274 23.2746 19.6061C23.4928 19.3848 23.6153 19.0846 23.6153 18.7716C23.6153 18.5382 23.5471 18.31 23.4193 18.1159C23.2915 17.9219 23.1098 17.7706 22.8972 17.6813C22.6847 17.5919 22.4508 17.5686 22.2251 17.6141C21.9995 17.6596 21.7922 17.772 21.6295 17.9371C21.4668 18.1021 21.356 18.3124 21.3111 18.5414C21.2662 18.7703 21.2893 19.0076 21.3773 19.2232C21.4654 19.4389 21.6145 19.6232 21.8058 19.7529Z"/>
</mask>
<path fill-rule="evenodd" clip-rule="evenodd" d="M22.0058 12.3836C21.9976 12.3799 21.9893 12.3761 21.9811 12.3724C20.1038 11.5204 18.0703 11.08 16.0135 11.08C13.9568 11.08 11.9233 11.5204 10.046 12.3724C10.0377 12.3761 10.0295 12.3799 10.0213 12.3836L7.66087 8.23936C7.5954 8.12835 7.48947 8.04798 7.36601 8.01563C7.24256 7.98328 7.11152 8.00157 7.00125 8.06652C6.89098 8.13147 6.81037 8.23787 6.77687 8.36268C6.74459 8.48289 6.75852 8.61087 6.8155 8.72084C6.81768 8.72505 6.81992 8.72922 6.82222 8.73338L9.15555 12.8296C9.14766 12.834 9.13976 12.8383 9.13187 12.8427C9.01312 12.9082 8.89549 12.9753 8.77903 13.0441C5.23538 15.137 2.76232 18.7365 2.11661 23C2.06671 23.3295 2.02772 23.663 2 24H30C29.9723 23.663 29.9333 23.3295 29.8833 23C29.2318 18.7027 26.7211 15.08 23.1612 12.9947C23.0731 12.9431 22.9845 12.8924 22.8951 12.8428C22.8873 12.8384 22.8794 12.834 22.8715 12.8296L25.2046 8.73385C25.2069 8.7297 25.2094 8.72505 25.2116 8.72084C25.2685 8.61087 25.2825 8.48289 25.2502 8.36268C25.2167 8.23787 25.1361 8.13147 25.0258 8.06652C24.9155 8.00157 24.7845 7.98328 24.661 8.01563C24.5376 8.04798 24.4317 8.12835 24.3662 8.23936L22.0058 12.3836ZM24.7766 8.48947L24.7802 8.48353ZM24.7847 8.48764L24.7843 8.48596ZM21.897 13.4331L21.5908 13.2935C19.8366 12.4934 17.9358 12.08 16.0135 12.08C14.0913 12.08 12.1904 12.4934 10.4362 13.2935L10.1547 13.4219L9.63682 13.7062C6.20994 15.5877 3.787 18.959 3.12887 23H28.871C28.2121 18.9588 25.7855 15.5861 22.3871 13.7045L21.897 13.4331ZM7.2504 8.48948L7.24689 8.48353Z" fill="black"/>
<path d="M8.91495 19.7529C9.10625 19.8825 9.33116 19.9518 9.56123 19.9518C9.86976 19.9518 10.1656 19.8274 10.3838 19.6061C10.602 19.3848 10.7245 19.0846 10.7245 18.7716C10.7245 18.5382 10.6563 18.31 10.5285 18.1159C10.4006 17.9219 10.219 17.7706 10.0064 17.6813C9.79384 17.5919 9.55994 17.5686 9.33429 17.6141C9.10863 17.6596 8.90136 17.772 8.73867 17.9371C8.57598 18.1021 8.46519 18.3124 8.4203 18.5414C8.37542 18.7703 8.39845 19.0076 8.4865 19.2232C8.57455 19.4389 8.72365 19.6232 8.91495 19.7529Z" fill="black"/>
<path d="M21.8058 19.7529C21.9971 19.8825 22.222 19.9518 22.4521 19.9518C22.7606 19.9518 23.0565 19.8274 23.2746 19.6061C23.4928 19.3848 23.6153 19.0846 23.6153 18.7716C23.6153 18.5382 23.5471 18.31 23.4193 18.1159C23.2915 17.9219 23.1098 17.7706 22.8972 17.6813C22.6847 17.5919 22.4508 17.5686 22.2251 17.6141C21.9995 17.6596 21.7922 17.772 21.6295 17.9371C21.4668 18.1021 21.356 18.3124 21.3111 18.5414C21.2662 18.7703 21.2893 19.0076 21.3773 19.2232C21.4654 19.4389 21.6145 19.6232 21.8058 19.7529Z" fill="black"/>
<path d="M22.0058 12.3836L21.5908 13.2935L22.4224 13.6728L22.8747 12.8786L22.0058 12.3836ZM21.9811 12.3724L22.3944 11.4618L22.3944 11.4618L21.9811 12.3724ZM10.046 12.3724L10.4592 13.283L10.4592 13.283L10.046 12.3724ZM10.0213 12.3836L9.15231 12.8786L9.60465 13.6728L10.4362 13.2935L10.0213 12.3836ZM7.66087 8.23936L8.52981 7.74445L8.52606 7.73786L8.52221 7.73132L7.66087 8.23936ZM7.00125 8.06652L7.5088 8.92814L7.5088 8.92814L7.00125 8.06652ZM6.77687 8.36268L7.74267 8.62197L7.74267 8.62197L6.77687 8.36268ZM6.8155 8.72084L5.92759 9.18086L5.92759 9.18087L6.8155 8.72084ZM6.82222 8.73338L5.94787 9.2188L5.9533 9.22833L6.82222 8.73338ZM9.15555 12.8296L9.63681 13.7062L10.5273 13.2173L10.0245 12.3347L9.15555 12.8296ZM9.13187 12.8427L9.61485 13.7183L9.61486 13.7183L9.13187 12.8427ZM8.77903 13.0441L8.27049 12.1831L8.27049 12.1831L8.77903 13.0441ZM2.11661 23L1.12789 22.8503L1.12789 22.8503L2.11661 23ZM2 24L1.00337 23.918L0.914365 25H2V24ZM30 24V25H31.0856L30.9966 23.918L30 24ZM29.8833 23L28.8946 23.1499L28.8946 23.1499L29.8833 23ZM23.1612 12.9947L23.6666 12.1318L23.6666 12.1318L23.1612 12.9947ZM22.8951 12.8428L22.409 13.7166L22.409 13.7166L22.8951 12.8428ZM22.8715 12.8296L22.0026 12.3347L21.5016 13.2142L22.3871 13.7045L22.8715 12.8296ZM25.2046 8.73385L26.0735 9.22884L26.0789 9.21911L25.2046 8.73385ZM25.2116 8.72084L24.3236 8.26082L24.3236 8.26096L25.2116 8.72084ZM25.2502 8.36268L26.216 8.1034L26.216 8.10339L25.2502 8.36268ZM25.0258 8.06652L24.5182 8.92814L24.5182 8.92814L25.0258 8.06652ZM24.661 8.01563L24.9145 8.98298L24.9145 8.98298L24.661 8.01563ZM24.3662 8.23936L23.5048 7.73132L23.501 7.73785L23.4972 7.74445L24.3662 8.23936ZM21.5908 13.2935L21.1759 14.2033L21.1759 14.2033L21.5908 13.2935ZM21.897 13.4331L22.3814 12.5583L22.3473 12.5394L22.3119 12.5233L21.897 13.4331ZM10.4362 13.2935L10.8512 14.2033L10.8512 14.2033L10.4362 13.2935ZM10.1547 13.4219L9.73973 12.512L9.70597 12.5274L9.67343 12.5453L10.1547 13.4219ZM9.63682 13.7062L10.1181 14.5828L10.1181 14.5828L9.63682 13.7062ZM3.12887 23L2.14188 22.8393L1.95284 24H3.12887V23ZM28.871 23V24H30.0473L29.858 22.8391L28.871 23ZM22.3871 13.7045L21.9027 14.5793L21.9027 14.5793L22.3871 13.7045ZM8.91495 19.7529L9.47605 18.9251L9.47605 18.9251L8.91495 19.7529ZM8.73867 17.9371L8.02649 17.2351L8.02649 17.2351L8.73867 17.9371ZM9.33429 17.6141L9.13648 16.6339L9.13648 16.6339L9.33429 17.6141ZM10.0064 17.6813L10.3938 16.7594L10.3938 16.7594L10.0064 17.6813ZM10.5285 18.1159L9.69333 18.666L9.69333 18.666L10.5285 18.1159ZM10.3838 19.6061L9.67162 18.9041L9.67162 18.9041L10.3838 19.6061ZM21.6295 17.9371L22.3417 18.6391L22.3417 18.6391L21.6295 17.9371ZM22.8972 17.6813L23.2846 16.7594L23.2846 16.7594L22.8972 17.6813ZM23.4193 18.1159L22.5842 18.666L22.5842 18.666L23.4193 18.1159ZM21.5678 13.283C21.5755 13.2865 21.5832 13.29 21.5908 13.2935L22.4208 11.4738C22.4119 11.4698 22.4031 11.4658 22.3944 11.4618L21.5678 13.283ZM16.0135 12.08C17.9274 12.08 19.82 12.4898 21.5678 13.283L22.3944 11.4618C20.3876 10.5511 18.2132 10.08 16.0135 10.08V12.08ZM10.4592 13.283C12.207 12.4898 14.0997 12.08 16.0135 12.08V10.08C13.8138 10.08 11.6395 10.5511 9.6327 11.4618L10.4592 13.283ZM10.4362 13.2935C10.4439 13.29 10.4516 13.2865 10.4592 13.283L9.63271 11.4618C9.62387 11.4658 9.61506 11.4698 9.60629 11.4738L10.4362 13.2935ZM7.11255 8.98298C6.97792 8.9477 6.86667 8.86121 6.79953 8.74739L8.52221 7.73132C8.32413 7.3955 8.00102 7.14826 7.61948 7.04829L7.11255 8.98298ZM7.5088 8.92814C7.39031 8.99794 7.24753 9.01834 7.11255 8.98298L7.61948 7.04829C7.23759 6.94822 6.83272 7.00519 6.4937 7.2049L7.5088 8.92814ZM7.74267 8.62197C7.70898 8.74744 7.62677 8.85865 7.5088 8.92814L6.4937 7.2049C6.1552 7.4043 5.91176 7.72831 5.81106 8.1034L7.74267 8.62197ZM7.70341 8.26082C7.76137 8.37271 7.77505 8.50133 7.74267 8.62197L5.81106 8.1034C5.71413 8.46446 5.75567 8.84903 5.92759 9.18086L7.70341 8.26082ZM7.69652 8.24798C7.69891 8.25229 7.7012 8.25657 7.7034 8.26081L5.92759 9.18087C5.93415 9.19352 5.94092 9.20616 5.94793 9.21877L7.69652 8.24798ZM9.61486 13.7183C9.62218 13.7143 9.6295 13.7102 9.63681 13.7062L8.6743 11.9531C8.66581 11.9577 8.65734 11.9624 8.64889 11.967L9.61486 13.7183ZM9.28756 13.9052C9.39559 13.8414 9.50469 13.7791 9.61485 13.7183L8.64889 11.967C8.52154 12.0373 8.3954 12.1093 8.27049 12.1831L9.28756 13.9052ZM3.10534 23.1497C3.7062 19.1823 6.00376 15.8446 9.28756 13.9052L8.27049 12.1831C4.46701 14.4294 1.81843 18.2907 1.12789 22.8503L3.10534 23.1497ZM2.99663 24.082C3.0225 23.7676 3.05885 23.4567 3.10534 23.1497L1.12789 22.8503C1.07458 23.2023 1.03295 23.5583 1.00337 23.918L2.99663 24.082ZM28.8946 23.1499C28.9411 23.4568 28.9775 23.7676 29.0034 24.082L30.9966 23.918C30.967 23.5583 30.9254 23.2022 30.872 22.8501L28.8946 23.1499ZM22.6557 13.8575C25.9549 15.7902 28.2883 19.1507 28.8946 23.1499L30.872 22.8501C30.1754 18.2547 27.4872 14.3699 23.6666 12.1318L22.6557 13.8575ZM22.409 13.7166C22.4919 13.7627 22.5741 13.8097 22.6557 13.8575L23.6666 12.1318C23.5722 12.0765 23.477 12.0221 23.3812 11.9689L22.409 13.7166ZM22.3871 13.7045C22.3944 13.7085 22.4017 13.7126 22.409 13.7166L23.3812 11.9689C23.3728 11.9642 23.3643 11.9595 23.3559 11.9548L22.3871 13.7045ZM24.3236 8.26096C24.3254 8.25751 24.3267 8.25494 24.3276 8.25334C24.3285 8.25166 24.3293 8.25012 24.3302 8.2486L26.0789 9.21911C26.0848 9.20854 26.092 9.19524 26.0995 9.18072L24.3236 8.26096ZM24.2844 8.62196C24.252 8.50133 24.2657 8.37271 24.3236 8.26082L26.0995 9.18086C26.2714 8.84903 26.3129 8.46446 26.216 8.1034L24.2844 8.62196ZM24.5182 8.92814C24.4003 8.85865 24.3181 8.74744 24.2844 8.62198L26.216 8.10339C26.1153 7.72831 25.8719 7.4043 25.5334 7.2049L24.5182 8.92814ZM24.9145 8.98298C24.7795 9.01834 24.6367 8.99794 24.5182 8.92814L25.5334 7.2049C25.1943 7.00519 24.7895 6.94822 24.4076 7.04829L24.9145 8.98298ZM25.2275 8.7474C25.1604 8.86121 25.0491 8.9477 24.9145 8.98298L24.4076 7.04829C24.026 7.14826 23.7029 7.3955 23.5048 7.73132L25.2275 8.7474ZM25.6382 8.99712L25.6417 8.99117L23.9186 7.97589L23.9151 7.98183L25.6382 8.99712ZM25.7519 8.23364L25.7515 8.23196L23.8171 8.73996L23.8175 8.74165L25.7519 8.23364ZM21.1759 14.2033L21.482 14.3429L22.3119 12.5233L22.0058 12.3836L21.1759 14.2033ZM16.0135 13.08C17.7922 13.08 19.5516 13.4625 21.1759 14.2033L22.0058 12.3836C20.1216 11.5243 18.0793 11.08 16.0135 11.08V13.08ZM10.8512 14.2033C12.4755 13.4625 14.2348 13.08 16.0135 13.08V11.08C13.9477 11.08 11.9054 11.5243 10.0213 12.3836L10.8512 14.2033ZM10.5697 14.3317L10.8512 14.2033L10.0213 12.3836L9.73973 12.512L10.5697 14.3317ZM10.1181 14.5828L10.636 14.2985L9.67343 12.5453L9.15555 12.8296L10.1181 14.5828ZM4.11587 23.1607C4.72474 19.4221 6.9621 16.3155 10.1181 14.5828L9.15555 12.8296C5.45778 14.8598 2.84925 18.4958 2.14188 22.8393L4.11587 23.1607ZM28.871 22H3.12887V24H28.871V22ZM21.9027 14.5793C25.0325 16.3123 27.2744 19.4215 27.884 23.1609L29.858 22.8391C29.1499 18.496 26.5384 14.8599 22.8715 12.8296L21.9027 14.5793ZM21.4126 14.308L21.9027 14.5793L22.8715 12.8296L22.3814 12.5583L21.4126 14.308ZM8.11203 7.98194L8.10852 7.97599L6.38526 8.99106L6.38877 8.99701L8.11203 7.98194ZM22.8747 12.8786L25.2351 8.73426L23.4972 7.74445L21.1369 11.8887L22.8747 12.8786ZM6.79192 8.73426L9.15231 12.8786L10.8902 11.8887L8.52981 7.74445L6.79192 8.73426ZM10.0245 12.3347L7.69114 8.23842L5.9533 9.22833L8.28664 13.3246L10.0245 12.3347ZM30 23H2V25H30V23ZM24.3356 8.2389L22.0026 12.3347L23.7404 13.3246L26.0735 9.22881L24.3356 8.2389ZM9.56123 18.9518C9.53218 18.9518 9.50256 18.9431 9.47605 18.9251L8.35384 20.5806C8.70994 20.822 9.13014 20.9518 9.56123 20.9518V18.9518ZM9.47605 18.9251C9.44937 18.907 9.42642 18.8798 9.41231 18.8452L7.56069 19.6012C7.72267 19.9979 7.99792 20.3393 8.35384 20.5806L9.47605 18.9251ZM9.41231 18.8452C9.39814 18.8105 9.39421 18.7715 9.40162 18.7338L7.43899 18.3489C7.35662 18.769 7.39877 19.2046 7.56069 19.6012L9.41231 18.8452ZM9.40162 18.7338C9.40901 18.6961 9.4269 18.6634 9.45085 18.6391L8.02649 17.2351C7.72506 17.5409 7.52137 17.9288 7.43899 18.3489L9.40162 18.7338ZM9.45085 18.6391C9.47464 18.615 9.50319 18.6002 9.5321 18.5943L9.13648 16.6339C8.71408 16.7191 8.32808 16.9291 8.02649 17.2351L9.45085 18.6391ZM9.5321 18.5943C9.56091 18.5885 9.59094 18.5914 9.619 18.6032L10.3938 16.7594C9.99674 16.5925 9.55898 16.5486 9.13648 16.6339L9.5321 18.5943ZM9.619 18.6032C9.64722 18.615 9.67367 18.6361 9.69333 18.666L11.3636 17.5659C11.1276 17.2076 10.7907 16.9261 10.3938 16.7594L9.619 18.6032ZM9.69333 18.666C9.71311 18.696 9.72452 18.7328 9.72452 18.7716H11.7245C11.7245 18.3436 11.5995 17.924 11.3636 17.5659L9.69333 18.666ZM9.72452 18.7716C9.72452 18.824 9.70387 18.8714 9.67162 18.9041L11.096 20.3081C11.5001 19.8982 11.7245 19.3452 11.7245 18.7716H9.72452ZM9.67162 18.9041C9.63986 18.9363 9.59986 18.9518 9.56123 18.9518V20.9518C10.1397 20.9518 10.6914 20.7185 11.096 20.3081L9.67162 18.9041ZM22.4521 18.9518C22.423 18.9518 22.3934 18.9431 22.3669 18.9251L21.2447 20.5806C21.6008 20.822 22.021 20.9518 22.4521 20.9518V18.9518ZM22.3669 18.9251C22.3402 18.907 22.3172 18.8798 22.3031 18.8452L20.4515 19.6012C20.6135 19.9979 20.8887 20.3393 21.2447 20.5806L22.3669 18.9251ZM22.3031 18.8452C22.289 18.8105 22.285 18.7715 22.2924 18.7338L20.3298 18.3489C20.2474 18.769 20.2896 19.2046 20.4515 19.6012L22.3031 18.8452ZM22.2924 18.7338C22.2998 18.6961 22.3177 18.6634 22.3417 18.6391L20.9173 17.2351C20.6159 17.5409 20.4122 17.9288 20.3298 18.3489L22.2924 18.7338ZM22.3417 18.6391C22.3655 18.615 22.394 18.6002 22.4229 18.5943L22.0273 16.6339C21.6049 16.7191 21.2189 16.9291 20.9173 17.2351L22.3417 18.6391ZM22.4229 18.5943C22.4517 18.5885 22.4818 18.5914 22.5098 18.6032L23.2846 16.7594C22.8876 16.5925 22.4498 16.5486 22.0273 16.6339L22.4229 18.5943ZM22.5098 18.6032C22.538 18.615 22.5645 18.6361 22.5842 18.666L24.2544 17.5659C24.0185 17.2076 23.6815 16.9261 23.2846 16.7594L22.5098 18.6032ZM22.5842 18.666C22.6039 18.696 22.6153 18.7328 22.6153 18.7716H24.6153C24.6153 18.3436 24.4903 17.924 24.2544 17.5659L22.5842 18.666ZM22.6153 18.7716C22.6153 18.824 22.5947 18.8714 22.5624 18.9041L23.9868 20.3081C24.3909 19.8982 24.6153 19.3452 24.6153 18.7716H22.6153ZM22.5624 18.9041C22.5307 18.9363 22.4907 18.9518 22.4521 18.9518V20.9518C23.0305 20.9518 23.5823 20.7185 23.9868 20.3081L22.5624 18.9041Z" fill="black" mask="url(#path-1-inside-1_1873_74)"/>
</svg>
