<svg width="32" height="32" viewBox="0 0 32 32" fill="none" xmlns="http://www.w3.org/2000/svg">
<path d="M16 18.45C14.6875 18.45 13.55 17.4 13.55 16C13.55 14.6875 14.6 13.55 16 13.55C17.3125 13.55 18.45 14.6 18.45 16C18.45 17.3125 17.3125 18.45 16 18.45Z" fill="black"/>
<path fill-rule="evenodd" clip-rule="evenodd" d="M18.975 10.05C19.5667 10.05 19.9083 10.175 20.1584 10.2665C20.2042 10.2833 20.2469 10.2989 20.2875 10.3125C20.3606 10.349 20.4298 10.3817 20.496 10.413C20.7471 10.5316 20.9548 10.6297 21.1625 10.8375C21.425 11.1 21.6 11.3625 21.6875 11.7125C21.775 11.975 21.8625 12.325 21.95 13.025V18.975C21.95 19.5667 21.825 19.9083 21.7334 20.1584C21.7167 20.2041 21.701 20.2469 21.6875 20.2875C21.651 20.3605 21.6183 20.4297 21.587 20.496C21.4684 20.747 21.3702 20.9547 21.1625 21.1625C20.9 21.425 20.6375 21.6 20.2875 21.6875C20.025 21.775 19.675 21.8625 18.975 21.95H13.025C12.4333 21.95 12.0917 21.8249 11.8416 21.7334C11.7959 21.7166 11.7531 21.701 11.7125 21.6875C11.6395 21.6509 11.5702 21.6182 11.504 21.5869C11.2529 21.4683 11.0452 21.3702 10.8375 21.1625C10.575 20.9 10.4 20.6375 10.3125 20.2875C10.225 20.025 10.1375 19.675 10.05 18.975V13.025C10.05 12.4332 10.1751 12.0916 10.2666 11.8415C10.2833 11.7958 10.299 11.7531 10.3125 11.7125C10.349 11.6394 10.3817 11.5702 10.413 11.5039C10.5317 11.2529 10.6298 11.0452 10.8375 10.8375C11.1 10.575 11.3625 10.4 11.7125 10.3125C11.975 10.225 12.325 10.1375 13.025 10.05H18.975ZM16 12.2375C13.9 12.2375 12.2375 13.9 12.2375 16C12.2375 18.1 13.9 19.7625 16 19.7625C18.1 19.7625 19.7625 18.1 19.7625 16C19.7625 13.9 18.1 12.2375 16 12.2375ZM20.725 12.15C20.725 12.6332 20.3333 13.025 19.85 13.025C19.3668 13.025 18.975 12.6332 18.975 12.15C18.975 11.6667 19.3668 11.275 19.85 11.275C20.3333 11.275 20.725 11.6667 20.725 12.15Z" fill="black"/>
<path fill-rule="evenodd" clip-rule="evenodd" d="M16 30C8.26801 30 2 23.732 2 16C2 8.26801 8.26801 2 16 2C23.732 2 30 8.26801 30 16C30 23.732 23.732 30 16 30ZM13.025 8.73745C12.2375 8.73745 11.7125 8.91246 11.275 9.08746C10.8375 9.26245 10.4 9.52496 9.96251 9.96246C9.52501 10.4 9.35001 10.75 9.08751 11.275C8.91251 11.7125 8.82501 12.2375 8.73751 13.025V18.975C8.73751 19.7625 8.91251 20.2875 9.08751 20.725C9.26251 21.1625 9.52501 21.6 9.96251 22.0375C10.4 22.4749 10.75 22.6499 11.275 22.9124C11.7125 23.0874 12.2375 23.175 13.025 23.2625H18.975C19.7625 23.2625 20.2875 23.0875 20.725 22.9125C21.1625 22.7375 21.6 22.475 22.0375 22.0375C22.475 21.6 22.65 21.25 22.9125 20.725C23.0875 20.2875 23.175 19.7625 23.2625 18.975V13.025C23.2625 12.2375 23.0875 11.7125 22.9125 11.275C22.7375 10.8375 22.475 10.4 22.0375 9.96246C21.6 9.52496 21.25 9.34996 20.725 9.08746C20.2875 8.91246 19.7625 8.82495 18.975 8.73745H13.025Z" fill="black"/>
</svg>
