<svg width="32" height="32" viewBox="0 0 32 32" fill="none" xmlns="http://www.w3.org/2000/svg">
<path d="M13.5 2C10.4624 2 8 4.46243 8 7.5V22.5C8 26.6421 11.3579 30 15.5 30C19.6421 30 23 26.6421 23 22.5V8H21V22.5C21 25.5376 18.5376 28 15.5 28C12.4624 28 10 25.5376 10 22.5V7.5C10 5.567 11.567 4 13.5 4C15.433 4 17 5.567 17 7.5V20.5C17 21.3284 16.3284 22 15.5 22C14.6716 22 14 21.3284 14 20.5V8H12V20.5C12 22.433 13.567 24 15.5 24C17.433 24 19 22.433 19 20.5V7.5C19 4.46243 16.5376 2 13.5 2Z" fill="black"/>
</svg>
