<svg width="32" height="32" viewBox="0 0 32 32" fill="none" xmlns="http://www.w3.org/2000/svg">
<path fill-rule="evenodd" clip-rule="evenodd" d="M5.33333 0C2.38781 0 0 2.38782 0 5.33333V26.6667C0 29.6122 2.38782 32 5.33333 32H26.6667C29.6122 32 32 29.6122 32 26.6667V5.33333C32 2.38781 29.6122 0 26.6667 0H5.33333ZM7.41422 6H11.0288V4H4V11.0288H6V7.41421L11.3265 12.7407L12.7407 11.3265L7.41422 6ZM24.6915 6H21.0768V4H28.1056V11.0288H26.1056V7.41428L20.7792 12.7407L19.365 11.3265L24.6915 6ZM21.0768 26.1057H24.6915L19.365 20.7792L20.7792 19.365L26.1056 24.6914V21.0769H28.1056V28.1057H21.0768V26.1057ZM11.3265 19.365L6 24.6915V21.0769H4V28.1057H11.0288V26.1057H7.41422L12.7407 20.7792L11.3265 19.365Z" fill="black"/>
</svg>
