<svg width="32" height="32" viewBox="0 0 32 32" fill="none" xmlns="http://www.w3.org/2000/svg">
<path fill-rule="evenodd" clip-rule="evenodd" d="M16.75 25.3422L9.28772 20.75H5.25V11.25L9.28771 11.25L16.75 6.65784L16.75 25.3422ZM15.25 22.6578L15.25 9.34218L9.71228 12.75L6.75 12.75L6.75 19.25L9.71228 19.25L15.25 22.6578Z" fill="black"/>
<path d="M19.4356 19.5061C21.1921 17.4987 21.1921 14.5013 19.4356 12.4939L20.5644 11.5061C22.8158 14.0791 22.8158 17.9209 20.5644 20.4939L19.4356 19.5061Z" fill="black"/>
<path d="M22.4103 9.46337C25.4246 13.2999 25.4246 18.7002 22.4103 22.5366L23.5898 23.4634C27.0315 19.083 27.0315 12.917 23.5898 8.53664L22.4103 9.46337Z" fill="black"/>
</svg>
