<svg width="32" height="32" viewBox="0 0 32 32" fill="none" xmlns="http://www.w3.org/2000/svg">
<path fill-rule="evenodd" clip-rule="evenodd" d="M4 15V4H15V15H4ZM6 6H13V13H6V6Z" fill="black"/>
<path fill-rule="evenodd" clip-rule="evenodd" d="M4 28V17H15V28H4ZM6 19H13V26H6V19Z" fill="black"/>
<path fill-rule="evenodd" clip-rule="evenodd" d="M28 15V4H17V15H28ZM19 6H26V13H19V6Z" fill="black"/>
<path d="M17 17H22V20H25V22H22V25H19V28H17V23H20V19H17V17Z" fill="black"/>
<path d="M26 17H28V19H26V17Z" fill="black"/>
<path d="M26 23H28V28H23V26H26V23Z" fill="black"/>
</svg>
