<svg width="32" height="32" viewBox="0 0 32 32" fill="none" xmlns="http://www.w3.org/2000/svg">
<path d="M11.41 22.59L10 24L16 30L22 24L20.59 22.59L17 26.17V12H15L15 26.17L11.41 22.59Z" fill="black"/>
<path d="M30 16C30 19.8264 28.465 23.2942 25.9771 25.8213L24.5628 24.407C26.6888 22.2419 28 19.2741 28 16C28 9.37258 22.6274 4 16 4C9.37258 4 4 9.37258 4 16C4 19.2741 5.31122 22.2419 7.43717 24.407L6.02291 25.8213C3.53504 23.2942 2 19.8264 2 16C2 8.26801 8.26801 2 16 2C23.732 2 30 8.26801 30 16Z" fill="black"/>
</svg>
