<svg width="32" height="32" viewBox="0 0 32 32" fill="none" xmlns="http://www.w3.org/2000/svg">
<path fill-rule="evenodd" clip-rule="evenodd" d="M5.88235 5C4.84276 5 4 5.84276 4 6.88235V21.9412C4 22.9808 4.84276 23.8235 5.88235 23.8235H17.1167C16.5561 22.8545 16.2353 21.7294 16.2353 20.5294C16.2353 16.8908 19.1849 13.9412 22.8235 13.9412C23.4776 13.9412 24.1095 14.0365 24.7059 14.214V6.88235C24.7059 5.84276 23.8631 5 22.8235 5H5.88235ZM6.82353 7.82353C6.30373 7.82353 5.88235 8.24491 5.88235 8.76471V9.70588H22.8235V8.76471C22.8235 8.24491 22.4021 7.82353 21.8824 7.82353H6.82353ZM28 20.5294C28 23.3883 25.6824 25.7059 22.8235 25.7059C19.9646 25.7059 17.6471 23.3883 17.6471 20.5294C17.6471 17.6705 19.9646 15.3529 22.8235 15.3529C25.6824 15.3529 28 17.6705 28 20.5294ZM26.6083 18.684L22.0646 23.0761L21.574 23.5504L21.0834 23.0761L19.0388 21.0997L20.02 20.0846L21.574 21.5869L25.627 17.6689L26.6083 18.684Z" fill="black"/>
</svg>
