<svg width="32" height="32" viewBox="0 0 32 32" fill="none" xmlns="http://www.w3.org/2000/svg">
<path fill-rule="evenodd" clip-rule="evenodd" d="M8.41574 17.4921L16 24.3106L23.5926 17.4845C25.1239 16.1234 26 14.1725 26 12.1238C26 9.29401 23.706 7 20.8762 7C19.5184 7 18.2871 7.52627 17.3692 8.38837L16 9.67419L14.6309 8.38837C13.7129 7.52627 12.4816 7 11.1238 7C8.29401 7 6 9.29401 6 12.1238C6 14.1725 6.8761 16.1235 8.40734 17.4846L8.41574 17.4921ZM16 27L7.07861 18.9794C5.1204 17.2388 4 14.7438 4 12.1238C4 8.18944 7.18944 5 11.1238 5C13.0107 5 14.7263 5.73433 16 6.93049C17.2737 5.73433 18.9893 5 20.8762 5C24.8106 5 28 8.18944 28 12.1238C28 14.7438 26.8796 17.2388 24.9214 18.9794L16 27Z" fill="black"/>
</svg>
