<svg width="32" height="32" viewBox="0 0 32 32" fill="none" xmlns="http://www.w3.org/2000/svg">
<path fill-rule="evenodd" clip-rule="evenodd" d="M5.33333 0C2.38781 0 0 2.38782 0 5.33333V26.6667C0 29.6122 2.38782 32 5.33333 32H26.6667C29.6122 32 32 29.6122 32 26.6667V5.33333C32 2.38781 29.6122 0 26.6667 0H5.33333ZM16.7053 7.81626L21 12.0893L22.4106 10.6715L15.7053 4L9 10.6715L10.4106 12.0893L14.7053 7.81625V20.744H16.7053V7.81626ZM5.33333 16H10.3333V18H7.33333V25.3333H24V18H21V16H26V27.3333H5.33333V16Z" fill="black"/>
</svg>
