<svg width="32" height="32" viewBox="0 0 32 32" fill="none" xmlns="http://www.w3.org/2000/svg">
<path d="M25.2308 14.1538H22.4615V9.53846H17.8462V6.76923C17.8462 5.24615 16.6 4 15.0769 4C13.5538 4 12.3077 5.24615 12.3077 6.76923V9.53846H4V14.1538H6.76923C8.29231 14.1538 9.53846 15.4 9.53846 16.9231C9.53846 18.4462 8.29231 19.6923 6.76923 19.6923H4V28H12.3077V25.2308C12.3077 23.7077 13.5538 22.4615 15.0769 22.4615C16.6 22.4615 17.8462 23.7077 17.8462 25.2308V28H22.4615V19.6923H25.2308C26.7538 19.6923 28 18.4462 28 16.9231C28 15.4 26.7538 14.1538 25.2308 14.1538Z" fill="black"/>
</svg>
