<svg width="32" height="32" viewBox="0 0 32 32" fill="none" xmlns="http://www.w3.org/2000/svg">
<path fill-rule="evenodd" clip-rule="evenodd" d="M11.7143 7.42857C11.7143 5.5409 13.2552 4 15.1429 4C17.0305 4 18.5714 5.5409 18.5714 7.42857V9.14286H22.8571V13.4286H24.5714C26.4591 13.4286 28 14.9695 28 16.8571C28 18.7448 26.4591 20.2857 24.5714 20.2857H22.8571V28H16.8571V24.5714C16.8571 23.6305 16.0838 22.8571 15.1429 22.8571C14.202 22.8571 13.4286 23.6305 13.4286 24.5714V28H4V18.5714H7.42857C8.36947 18.5714 9.14286 17.798 9.14286 16.8571C9.14286 15.9162 8.36947 15.1429 7.42857 15.1429H4V9.14286H11.7143V7.42857ZM15.1429 5.71429C14.202 5.71429 13.4286 6.48767 13.4286 7.42857V10.8571H5.71429V13.4286H7.42857C9.31624 13.4286 10.8571 14.9695 10.8571 16.8571C10.8571 18.7448 9.31624 20.2857 7.42857 20.2857H5.71429V26.2857H11.7143V24.5714C11.7143 22.6838 13.2552 21.1429 15.1429 21.1429C17.0305 21.1429 18.5714 22.6838 18.5714 24.5714V26.2857H21.1429V18.5714H24.5714C25.5123 18.5714 26.2857 17.798 26.2857 16.8571C26.2857 15.9162 25.5123 15.1429 24.5714 15.1429H21.1429V10.8571H16.8571V7.42857C16.8571 6.48767 16.0838 5.71429 15.1429 5.71429Z" fill="black"/>
</svg>
