<svg width="32" height="32" viewBox="0 0 32 32" fill="none" xmlns="http://www.w3.org/2000/svg">
<path fill-rule="evenodd" clip-rule="evenodd" d="M16 2L22.046 8.04595L16 14.0919L9.95405 8.04595L16 2ZM12.7825 8.04595L16 11.2635L19.2175 8.04595L16 4.82843L12.7825 8.04595ZM8.04595 9.95405L14.0919 16L8.04595 22.046L2 16L8.04595 9.95405ZM4.82843 16L8.04595 19.2175L11.2635 16L8.04595 12.7825L4.82843 16ZM23.954 9.95405L30 16L23.954 22.046L17.9081 16L23.954 9.95405ZM20.7365 16L23.954 19.2175L27.1716 16L23.954 12.7825L20.7365 16ZM16 17.9081L22.046 23.954L16 30L9.95405 23.954L16 17.9081ZM12.7825 23.954L16 27.1716L19.2175 23.954L16 20.7365L12.7825 23.954Z" fill="black"/>
</svg>
