<svg width="32" height="32" viewBox="0 0 32 32" fill="none" xmlns="http://www.w3.org/2000/svg">
<path d="M20.5858 10.0003L16 14.586L11.4143 10.0002L10.0001 11.4145L14.5858 16.0003L10.0001 20.586L11.4143 22.0002L16 17.4145L20.5858 22.0002L22 20.586L17.4143 16.0003L22 11.4145L20.5858 10.0003Z" fill="black"/>
<path fill-rule="evenodd" clip-rule="evenodd" d="M30 16C30 23.732 23.732 30 16 30C8.26801 30 2 23.732 2 16C2 8.26801 8.26801 2 16 2C23.732 2 30 8.26801 30 16ZM28 16C28 22.6274 22.6274 28 16 28C9.37258 28 4 22.6274 4 16C4 9.37258 9.37258 4 16 4C22.6274 4 28 9.37258 28 16Z" fill="black"/>
</svg>
