<svg width="32" height="32" viewBox="0 0 32 32" fill="none" xmlns="http://www.w3.org/2000/svg">
<path d="M25.0179 7.5777C23.3016 6.83393 21.5147 6.293 19.6573 6C19.4222 6.40569 19.1636 6.92408 18.9755 7.35231C17.0005 7.05931 15.0021 7.05931 13.0271 7.35231C12.8155 6.879 12.5804 6.42823 12.3218 6C10.4644 6.293 8.654 6.83393 6.96118 7.60024C3.57555 12.446 2.65861 17.1566 3.10533 21.8221C5.10379 23.242 7.31385 24.3238 9.6885 25C10.2293 24.3013 10.6995 23.5801 11.0992 22.8138C10.3233 22.5433 9.59446 22.2052 8.88912 21.7995C9.07721 21.6643 9.24179 21.5291 9.42988 21.3938C13.5914 23.2871 18.4347 23.2871 22.5962 21.3938C22.7843 21.5291 22.9489 21.6643 23.137 21.7995C22.4316 22.2052 21.6793 22.5433 20.9034 22.8138C21.3031 23.5801 21.7733 24.3013 22.3141 25C24.6887 24.3013 26.9223 23.242 28.8973 21.8221C29.4145 16.4128 27.9568 11.7248 25.0179 7.5777ZM11.6635 18.9371C10.3703 18.9371 9.33583 17.8102 9.33583 16.4353C9.33583 15.0605 10.3703 13.911 11.6635 13.911C12.9801 13.911 14.0146 15.038 14.0146 16.4353C13.9911 17.8102 12.9801 18.9371 11.6635 18.9371ZM20.3156 18.9371C19.0225 18.9371 17.988 17.8102 17.988 16.4353C17.988 15.0605 19.0225 13.911 20.3156 13.911C21.6323 13.911 22.6668 15.038 22.6432 16.4353C22.6197 17.8327 21.6087 18.9371 20.3156 18.9371Z" fill="black"/>
</svg>
