<svg width="32" height="32" viewBox="0 0 32 32" fill="none" xmlns="http://www.w3.org/2000/svg">
<path d="M1.81148 14.5286C4.65816 13.014 7.83583 11.7499 10.8049 10.4793C15.9128 8.39811 21.0411 6.35303 26.221 4.44909C27.2289 4.12467 29.0397 3.80741 29.2173 5.25012C29.1201 7.29226 28.7201 9.32244 28.4458 11.3526C27.7494 15.8172 26.9446 20.2664 26.1598 24.7163C25.8894 26.1985 23.9671 26.9658 22.7372 26.0173C19.7813 24.0886 16.8027 22.1788 13.8846 20.2055C12.9287 19.2672 13.8151 17.9199 14.6688 17.2499C17.1033 14.9323 19.6852 12.9633 21.9925 10.526C22.6149 9.07418 20.7759 10.2977 20.1694 10.6726C16.8365 12.8912 13.5851 15.2452 10.0712 17.195C8.27629 18.1494 6.18429 17.3338 4.39019 16.8012C2.78155 16.1579 0.424461 15.5096 1.81148 14.5286Z" fill="black"/>
</svg>
