<svg width="32" height="32" viewBox="0 0 32 32" fill="none" xmlns="http://www.w3.org/2000/svg">
<path fill-rule="evenodd" clip-rule="evenodd" d="M16 30C23.732 30 30 23.732 30 16C30 8.26801 23.732 2 16 2C8.26801 2 2 8.26801 2 16C2 23.732 8.26801 30 16 30ZM17.3292 17.3053C17.467 17.0541 17.6663 16.8423 17.9145 16.6993L17.9751 16.6644C18.3135 16.4696 18.7634 16.2101 19.1972 15.8727C20.1013 15.1695 20.9999 14.0733 20.9999 12.3333C20.9999 11.0235 20.4305 9.90945 19.4923 9.14246C18.5693 8.38789 17.3332 8 15.9999 8C14.0423 8 12.7483 8.90828 11.9795 10.0116C11.3499 10.9152 11.0787 11.9337 11.0151 12.6667H13.0279C13.0902 12.2503 13.2636 11.6671 13.6204 11.155C14.0521 10.5355 14.7584 10 15.9999 10C16.9587 10 17.7226 10.279 18.2264 10.6909C18.7155 11.0907 18.9999 11.6434 18.9999 12.3333C18.9999 12.7824 18.8977 13.1589 18.7089 13.486C18.5224 13.8091 18.2614 14.0668 17.9693 14.294C17.6563 14.5375 17.3175 14.7352 16.9697 14.9355L16.8977 14.9767C16.6123 15.1399 16.2183 15.3674 15.9595 15.6262C15.3588 16.2269 15.1361 16.9651 15.0503 17.569C14.9946 17.9604 14.9912 19.7016 14.9948 20H16.9965C16.9937 19.8189 16.9914 19.0481 17.0025 18.4707C17.0104 18.0598 17.1316 17.6657 17.3292 17.3053ZM17 23.6667V21.6667H15V23.6667H17Z" fill="black"/>
</svg>
