<svg width="32" height="32" viewBox="0 0 32 32" fill="none" xmlns="http://www.w3.org/2000/svg">
<path d="M17.9145 16.6993C17.6663 16.8423 17.467 17.0541 17.3292 17.3053C17.1316 17.6657 17.0104 18.0598 17.0025 18.4707C16.9914 19.0481 16.9937 19.8189 16.9965 20H14.9948C14.9912 19.7016 14.9946 17.9604 15.0503 17.569C15.1361 16.9651 15.3588 16.2269 15.9595 15.6262C16.2183 15.3674 16.6123 15.1399 16.8977 14.9767L16.9697 14.9355C17.3175 14.7352 17.6563 14.5375 17.9693 14.294C18.2614 14.0668 18.5224 13.8091 18.7089 13.486C18.8977 13.1589 18.9999 12.7824 18.9999 12.3333C18.9999 11.6434 18.7155 11.0907 18.2264 10.6909C17.7226 10.279 16.9587 10 15.9999 10C14.7584 10 14.0521 10.5355 13.6204 11.155C13.2636 11.6671 13.0902 12.2503 13.0279 12.6667H11.0151C11.0787 11.9337 11.3499 10.9152 11.9795 10.0116C12.7483 8.90828 14.0423 8 15.9999 8C17.3332 8 18.5693 8.38789 19.4923 9.14246C20.4305 9.90945 20.9999 11.0235 20.9999 12.3333C20.9999 14.0733 20.1013 15.1695 19.1972 15.8727C18.7634 16.2101 18.3135 16.4696 17.9751 16.6644L17.9145 16.6993Z" fill="black"/>
<path d="M17 21.6667V23.6667H15V21.6667H17Z" fill="black"/>
<path fill-rule="evenodd" clip-rule="evenodd" d="M30 16C30 23.732 23.732 30 16 30C8.26801 30 2 23.732 2 16C2 8.26801 8.26801 2 16 2C23.732 2 30 8.26801 30 16ZM28 16C28 22.6274 22.6274 28 16 28C9.37258 28 4 22.6274 4 16C4 9.37258 9.37258 4 16 4C22.6274 4 28 9.37258 28 16Z" fill="black"/>
</svg>
