<svg width="32" height="32" viewBox="0 0 32 32" fill="none" xmlns="http://www.w3.org/2000/svg">
<path fill-rule="evenodd" clip-rule="evenodd" d="M16 31C24.2843 31 31 24.2843 31 16C31 7.71573 24.2843 1 16 1C7.71573 1 1 7.71573 1 16C1 24.2843 7.71573 31 16 31ZM16 32C24.8366 32 32 24.8366 32 16C32 7.16344 24.8366 0 16 0C7.16344 0 0 7.16344 0 16C0 24.8366 7.16344 32 16 32Z" fill="black"/>
<path fill-rule="evenodd" clip-rule="evenodd" d="M22.2231 26.7837C23.9186 24.0709 25 20.2608 25 16C25 11.7392 23.9186 7.92915 22.2231 5.21629C20.5187 2.48934 18.2922 1 16 1C13.7078 1 11.4813 2.48934 9.77693 5.21629C8.08139 7.92915 7 11.7392 7 16C7 20.2608 8.08139 24.0709 9.77693 26.7837C11.4813 29.5107 13.7078 31 16 31C18.2922 31 20.5187 29.5107 22.2231 26.7837ZM16 32C21.5228 32 26 24.8366 26 16C26 7.16344 21.5228 0 16 0C10.4772 0 6 7.16344 6 16C6 24.8366 10.4772 32 16 32Z" fill="black"/>
<path fill-rule="evenodd" clip-rule="evenodd" d="M26.7837 9.77693C24.0709 8.08139 20.2608 7 16 7C11.7392 7 7.92915 8.08139 5.21629 9.77693C2.48934 11.4813 1 13.7078 1 16C1 18.2922 2.48934 20.5187 5.21629 22.2231C7.92915 23.9186 11.7392 25 16 25C20.2608 25 24.0709 23.9186 26.7837 22.2231C29.5107 20.5187 31 18.2922 31 16C31 13.7078 29.5107 11.4813 26.7837 9.77693ZM32 16C32 10.4772 24.8366 6 16 6C7.16344 6 -2.41411e-07 10.4772 0 16C2.41412e-07 21.5228 7.16344 26 16 26C24.8366 26 32 21.5228 32 16Z" fill="black"/>
<path d="M10.86 15.672C11.228 15.672 11.48 15.628 11.616 15.54C11.76 15.452 11.832 15.248 11.832 14.928V13.824C11.832 13.648 11.776 13.504 11.664 13.392C11.56 13.28 11.416 13.224 11.232 13.224C11.016 13.224 10.86 13.292 10.764 13.428C10.676 13.564 10.632 13.696 10.632 13.824V14.52H9.40796V13.812C9.40796 13.564 9.45596 13.328 9.55196 13.104C9.64796 12.88 9.77996 12.688 9.94796 12.528C10.116 12.368 10.312 12.24 10.536 12.144C10.76 12.048 11 12 11.256 12C11.592 12 11.868 12.068 12.084 12.204C12.308 12.332 12.476 12.464 12.588 12.6C12.668 12.696 12.736 12.792 12.792 12.888C12.856 12.984 12.908 13.1 12.948 13.236C13.02 13.5 13.056 13.892 13.056 14.412C13.056 14.708 13.048 14.948 13.032 15.132C13.024 15.316 12.996 15.468 12.948 15.588C12.892 15.716 12.812 15.824 12.708 15.912C12.612 16 12.476 16.096 12.3 16.2C12.492 16.32 12.636 16.432 12.732 16.536C12.836 16.64 12.912 16.76 12.96 16.896C13.008 17.04 13.036 17.212 13.044 17.412C13.052 17.604 13.056 17.852 13.056 18.156C13.056 18.436 13.048 18.668 13.032 18.852C13.024 19.036 13.008 19.188 12.984 19.308C12.96 19.436 12.928 19.544 12.888 19.632C12.848 19.72 12.796 19.812 12.732 19.908C12.58 20.132 12.384 20.32 12.144 20.472C11.912 20.616 11.604 20.688 11.22 20.688C11.028 20.688 10.824 20.656 10.608 20.592C10.392 20.528 10.196 20.424 10.02 20.28C9.84396 20.136 9.69596 19.948 9.57596 19.716C9.46396 19.484 9.40796 19.2 9.40796 18.864V18.168H10.632V18.804C10.632 18.996 10.684 19.156 10.788 19.284C10.9 19.404 11.048 19.464 11.232 19.464C11.416 19.464 11.56 19.404 11.664 19.284C11.776 19.156 11.832 18.988 11.832 18.78V17.556C11.832 17.22 11.768 17 11.64 16.896C11.568 16.832 11.468 16.792 11.34 16.776C11.22 16.76 11.06 16.752 10.86 16.752V15.672Z" fill="black"/>
<path d="M16.5968 12.072L15.2048 15.66L15.2288 15.684C15.2688 15.652 15.3288 15.628 15.4088 15.612C15.4968 15.588 15.6088 15.576 15.7448 15.576C15.9608 15.576 16.1608 15.628 16.3448 15.732C16.5288 15.836 16.6728 15.968 16.7768 16.128C16.8328 16.216 16.8768 16.304 16.9088 16.392C16.9408 16.48 16.9688 16.596 16.9928 16.74C17.0088 16.884 17.0208 17.068 17.0288 17.292C17.0368 17.508 17.0408 17.784 17.0408 18.12C17.0408 18.4 17.0368 18.632 17.0288 18.816C17.0208 18.992 17.0088 19.14 16.9928 19.26C16.9688 19.388 16.9368 19.496 16.8968 19.584C16.8648 19.672 16.8208 19.764 16.7648 19.86C16.6048 20.124 16.3888 20.328 16.1168 20.472C15.8528 20.616 15.5528 20.688 15.2168 20.688C14.8808 20.688 14.5808 20.616 14.3168 20.472C14.0528 20.32 13.8408 20.116 13.6808 19.86C13.6168 19.764 13.5648 19.672 13.5248 19.584C13.4928 19.496 13.4688 19.388 13.4528 19.26C13.4288 19.14 13.4128 18.992 13.4048 18.816C13.3968 18.632 13.3928 18.4 13.3928 18.12C13.3928 17.856 13.3968 17.64 13.4048 17.472C13.4128 17.296 13.4248 17.144 13.4408 17.016C13.4568 16.896 13.4808 16.788 13.5128 16.692C13.5448 16.588 13.5808 16.48 13.6208 16.368L15.2288 12.072H16.5968ZM15.8168 17.268C15.8168 17.084 15.7568 16.936 15.6368 16.824C15.5168 16.712 15.3768 16.656 15.2168 16.656C15.0568 16.656 14.9168 16.712 14.7968 16.824C14.6768 16.936 14.6168 17.084 14.6168 17.268V18.852C14.6168 19.036 14.6768 19.184 14.7968 19.296C14.9168 19.408 15.0568 19.464 15.2168 19.464C15.3768 19.464 15.5168 19.408 15.6368 19.296C15.7568 19.184 15.8168 19.036 15.8168 18.852V17.268Z" fill="black"/>
<path d="M17.3776 13.836C17.3776 13.548 17.4256 13.292 17.5216 13.068C17.6256 12.844 17.7616 12.652 17.9296 12.492C18.0976 12.332 18.2896 12.212 18.5056 12.132C18.7296 12.044 18.9616 12 19.2016 12C19.4416 12 19.6696 12.044 19.8856 12.132C20.1096 12.212 20.3056 12.332 20.4736 12.492C20.6416 12.652 20.7736 12.844 20.8696 13.068C20.9736 13.292 21.0256 13.548 21.0256 13.836V18.852C21.0256 19.14 20.9736 19.396 20.8696 19.62C20.7736 19.844 20.6416 20.036 20.4736 20.196C20.3056 20.356 20.1096 20.48 19.8856 20.568C19.6696 20.648 19.4416 20.688 19.2016 20.688C18.9616 20.688 18.7296 20.648 18.5056 20.568C18.2896 20.48 18.0976 20.356 17.9296 20.196C17.7616 20.036 17.6256 19.844 17.5216 19.62C17.4256 19.396 17.3776 19.14 17.3776 18.852V13.836ZM18.6016 18.852C18.6016 19.028 18.6576 19.176 18.7696 19.296C18.8816 19.408 19.0256 19.464 19.2016 19.464C19.3776 19.464 19.5216 19.408 19.6336 19.296C19.7456 19.176 19.8016 19.028 19.8016 18.852V13.836C19.8016 13.66 19.7456 13.516 19.6336 13.404C19.5216 13.284 19.3776 13.224 19.2016 13.224C19.0256 13.224 18.8816 13.284 18.7696 13.404C18.6576 13.516 18.6016 13.66 18.6016 13.836V18.852Z" fill="black"/>
<path fill-rule="evenodd" clip-rule="evenodd" d="M22.5 13.25C22.6381 13.25 22.75 13.1381 22.75 13C22.75 12.8619 22.6381 12.75 22.5 12.75C22.3619 12.75 22.25 12.8619 22.25 13C22.25 13.1381 22.3619 13.25 22.5 13.25ZM21.25 13C21.25 12.3096 21.8096 11.75 22.5 11.75C23.1904 11.75 23.75 12.3096 23.75 13C23.75 13.6904 23.1904 14.25 22.5 14.25C21.8096 14.25 21.25 13.6904 21.25 13Z" fill="black"/>
</svg>
