<svg width="32" height="32" viewBox="0 0 32 32" fill="none" xmlns="http://www.w3.org/2000/svg">
<path d="M20.59 9.41L22 8L16 2L10 8L11.41 9.41L15 5.83L15 20H17V5.83L20.59 9.41Z" fill="black"/>
<path d="M2 16C2 12.1736 3.53505 8.70579 6.02291 6.17871L7.43718 7.59298C5.31122 9.75808 4 12.7259 4 16C4 22.6274 9.37258 28 16 28C22.6274 28 28 22.6274 28 16C28 12.7259 26.6888 9.75808 24.5628 7.59298L25.9771 6.17871C28.465 8.70579 30 12.1736 30 16C30 23.732 23.732 30 16 30C8.26801 30 2 23.732 2 16Z" fill="black"/>
</svg>
