<svg width="32" height="32" viewBox="0 0 32 32" fill="none" xmlns="http://www.w3.org/2000/svg">
<path d="M12.6345 11.1536L8.96143 19.9709H6.54321L4.76483 12.9963C4.73558 12.6599 4.53083 12.363 4.22663 12.2161C3.51733 11.876 2.77 11.6216 2 11.4607V11.2047H5.83902C6.36405 11.2106 6.80792 11.5952 6.88909 12.1137L7.83531 17.2324L10.1899 11.2303L12.6345 11.1536ZM22.0148 17.0912C22.0148 14.7754 18.8156 14.6467 18.8412 13.5974C18.8412 13.2903 19.1484 12.9451 19.8006 12.8683C20.5684 12.7908 21.3421 12.9232 22.0404 13.2522L22.4368 11.3839C21.756 11.1353 21.0372 11.0051 20.3125 11C18.0727 11 16.4735 12.1897 16.4735 13.9177C16.4735 15.1973 17.5996 15.8884 18.4573 16.311C19.3144 16.7329 19.6346 17.0276 19.6346 17.4115C19.6346 17.9995 18.9305 18.2554 18.2775 18.2685C17.4672 18.2905 16.6643 18.1004 15.9484 17.7179L15.5009 19.6506C16.317 19.965 17.1857 20.1208 18.0603 20.1113C20.4405 20.1113 21.9885 18.934 22.0017 17.0912H22.0148ZM27.9138 19.9709H30L28.1821 11.1536H26.2626C25.8363 11.1536 25.4517 11.411 25.2901 11.8066L21.8993 19.9709H24.2795L24.7402 18.6912H27.6454L27.9138 19.9709ZM25.3544 16.8485L26.5573 13.5462L27.2739 16.8353L25.3544 16.8485ZM15.8336 11.1536L13.9653 19.9709H11.7387L13.607 11.1536H15.8336Z" fill="black"/>
</svg>
