<svg width="32" height="32" viewBox="0 0 32 32" fill="none" xmlns="http://www.w3.org/2000/svg">
<path d="M15.9936 28C12.6585 28 9.82578 26.8339 7.49547 24.5016C5.16516 22.1693 4 19.3372 4 16.0054C4 12.6736 5.16585 9.83972 7.49754 7.50383C9.82926 5.16794 12.6606 4 15.9916 4C16.1445 4 16.3137 4.00557 16.4993 4.01672C16.6849 4.02787 16.9282 4.0446 17.2293 4.0669C16.4376 4.79164 15.8272 5.67247 15.3979 6.70941C14.9686 7.74634 14.754 8.83693 14.754 9.98117C14.754 12.0044 15.4597 13.721 16.8711 15.131C18.2825 16.541 19.9963 17.246 22.0125 17.246C23.1582 17.246 24.2493 17.0476 25.2858 16.6508C26.3222 16.254 27.2047 15.6942 27.9331 14.9714C27.9554 15.2279 27.9721 15.4322 27.9833 15.5843C27.9944 15.7365 28 15.8778 28 16.0084C28 19.3394 26.8327 22.1707 24.4981 24.5025C22.1636 26.8342 19.3287 28 15.9936 28Z" fill="black"/>
</svg>
