<svg width="32" height="32" viewBox="0 0 32 32" fill="none" xmlns="http://www.w3.org/2000/svg">
<path fill-rule="evenodd" clip-rule="evenodd" d="M25.2858 16.6508C24.2493 17.0476 23.1582 17.246 22.0125 17.246C19.9963 17.246 18.2825 16.541 16.8711 15.131C15.4597 13.721 14.754 12.0044 14.754 9.98117C14.754 8.83693 14.9686 7.74634 15.3979 6.70941C15.4017 6.70014 15.4056 6.69089 15.4095 6.68165C15.5765 6.28226 15.7706 5.90615 15.9916 5.55333C16.1321 5.32919 16.2834 5.11445 16.4457 4.90911C16.6835 4.6082 16.9447 4.32746 17.2293 4.0669C16.9282 4.0446 16.6849 4.02787 16.4993 4.01672C16.3137 4.00557 16.1445 4 15.9916 4C15.1972 4 14.4311 4.06644 13.6935 4.19932C11.3384 4.62358 9.27312 5.72508 7.49754 7.50383C5.16585 9.83972 4 12.6736 4 16.0054C4 19.3372 5.16516 22.1693 7.49547 24.5016C9.82578 26.8339 12.6585 28 15.9936 28C19.3287 28 22.1636 26.8342 24.4981 24.5025C26.2498 22.7529 27.3443 20.7221 27.7817 18.4099C27.9272 17.6406 28 16.84 28 16.0084C28 15.8778 27.9944 15.7365 27.9833 15.5843C27.9721 15.4322 27.9554 15.2279 27.9331 14.9714C27.688 15.2146 27.4254 15.4394 27.1454 15.6457C26.9717 15.7737 26.7913 15.8946 26.6042 16.0084C26.2052 16.2509 25.7757 16.4612 25.3157 16.6393C25.3057 16.6431 25.2958 16.647 25.2858 16.6508ZM24.6561 19.6211C23.7952 19.8161 22.9126 19.9127 22.0125 19.9127C19.298 19.9127 16.9038 18.933 14.9864 17.0176C13.0664 15.0995 12.0873 12.7009 12.0873 9.98117C12.0873 9.07989 12.1905 8.19677 12.3977 7.33661C11.2988 7.78817 10.3011 8.46992 9.38486 9.38776C7.55752 11.2184 6.66667 13.3725 6.66667 16.0054C6.66667 18.6388 7.55709 20.7904 9.38188 22.6168C11.2056 24.442 13.3569 25.3333 15.9936 25.3333C18.6306 25.3333 20.7851 24.442 22.6137 22.6157C23.5259 21.7046 24.2048 20.7129 24.6561 19.6211ZM25.2858 16.6508L25.288 16.6565L25.295 16.6749L25.288 16.6565L25.2858 16.6508ZM25.295 16.6749L25.2972 16.6805L25.295 16.6749Z" fill="black"/>
</svg>
