<svg width="32" height="32" viewBox="0 0 32 32" fill="none" xmlns="http://www.w3.org/2000/svg">
<path d="M17 2H15V7H17V2Z" fill="black"/>
<path fill-rule="evenodd" clip-rule="evenodd" d="M16 9C14.6155 9 13.2622 9.41052 12.1111 10.1797C10.96 10.9489 10.0627 12.0421 9.53296 13.3212C9.00293 14.6003 8.8645 16.0078 9.13452 17.3657C9.40454 18.7235 10.0713 19.9708 11.0503 20.9498C12.0293 21.9287 13.2766 22.5954 14.6343 22.8655C15.9922 23.1356 17.3997 22.9969 18.6787 22.4672C19.9578 21.9373 21.051 21.0402 21.8203 19.889C22.5894 18.7379 23 17.3845 23 16C23 14.1435 22.2625 12.363 20.9497 11.0502C19.637 9.73749 17.8564 9 16 9ZM16 11C16.989 11 17.9556 11.2933 18.7778 11.8427C19.6001 12.3921 20.241 13.173 20.6194 14.0866C20.9978 15.0002 21.0969 16.0056 20.9038 16.9755C20.7109 17.9454 20.2349 18.8362 19.5356 19.5355C18.8362 20.2348 17.9453 20.711 16.9753 20.9039C16.0056 21.0969 15.0002 20.9979 14.0867 20.6194C13.1729 20.241 12.3921 19.6001 11.8428 18.7778C11.2932 17.9556 11 16.9889 11 16C11 14.6739 11.5269 13.4022 12.4644 12.4645C13.4021 11.5268 14.6738 11 16 11Z" fill="black"/>
<path d="M21.6526 8.93311L25.1882 5.39758L26.6023 6.81177L23.0669 10.3473L21.6526 8.93311Z" fill="black"/>
<path d="M30 15H25V17H30V15Z" fill="black"/>
<path d="M21.6501 23.0693L23.0645 21.6552L26.5999 25.1907L25.1858 26.6049L21.6501 23.0693Z" fill="black"/>
<path d="M15 25V30H17V25H15Z" fill="black"/>
<path d="M5.39258 25.1882L8.92822 21.6527L10.3423 23.0669L6.80688 26.6024L5.39258 25.1882Z" fill="black"/>
<path d="M7 15H2V17H7V15Z" fill="black"/>
<path d="M5.39502 6.80933L6.80933 5.39514L10.3447 8.93066L8.93066 10.3448L5.39502 6.80933Z" fill="black"/>
</svg>
