<svg width="32" height="32" viewBox="0 0 32 32" fill="none" xmlns="http://www.w3.org/2000/svg">
<path fill-rule="evenodd" clip-rule="evenodd" d="M22 10C22 13.3137 19.3137 16 16 16C12.6863 16 10 13.3137 10 10C10 6.68629 12.6863 4 16 4C19.3137 4 22 6.68629 22 10ZM20 10C20 12.2091 18.2091 14 16 14C13.7909 14 12 12.2091 12 10C12 7.79086 13.7909 6 16 6C18.2091 6 20 7.79086 20 10Z" fill="black"/>
<path fill-rule="evenodd" clip-rule="evenodd" d="M16 18C21.8055 18 26.6481 21.4355 27.76 26C27.9174 26.6462 28 27.3151 28 28H4C4 27.3151 4.08263 26.6462 4.24004 26C5.35189 21.4355 10.1945 18 16 18ZM6.32793 26C7.41215 22.7211 11.0934 20 16 20C20.9066 20 24.5879 22.7211 25.6721 26H6.32793Z" fill="black"/>
</svg>
