<svg width="32" height="32" viewBox="0 0 32 32" fill="none" xmlns="http://www.w3.org/2000/svg">
<path d="M20 17C20 19.2091 18.2091 21 16 21C13.7909 21 12 19.2091 12 17C12 14.7909 13.7909 13 16 13C18.2091 13 20 14.7909 20 17Z" fill="black"/>
<path fill-rule="evenodd" clip-rule="evenodd" d="M3 27H29V7H21L20 5H12L11 7H3V27ZM22 17C22 20.3137 19.3137 23 16 23C12.6863 23 10 20.3137 10 17C10 13.6863 12.6863 11 16 11C19.3137 11 22 13.6863 22 17ZM25 13C25 13.5523 24.5523 14 24 14C23.4477 14 23 13.5523 23 13C23 12.4477 23.4477 12 24 12C24.5523 12 25 12.4477 25 13Z" fill="black"/>
</svg>
