<svg width="32" height="32" viewBox="0 0 32 32" fill="none" xmlns="http://www.w3.org/2000/svg">
<path fill-rule="evenodd" clip-rule="evenodd" d="M16 23C19.3137 23 22 20.3137 22 17C22 13.6863 19.3137 11 16 11C12.6863 11 10 13.6863 10 17C10 20.3137 12.6863 23 16 23ZM16 21C18.2091 21 20 19.2091 20 17C20 14.7909 18.2091 13 16 13C13.7909 13 12 14.7909 12 17C12 19.2091 13.7909 21 16 21Z" fill="black"/>
<path d="M24 14C24.5523 14 25 13.5523 25 13C25 12.4477 24.5523 12 24 12C23.4477 12 23 12.4477 23 13C23 13.5523 23.4477 14 24 14Z" fill="black"/>
<path fill-rule="evenodd" clip-rule="evenodd" d="M29 7V27H3V7H11L12 5H20L21 7H29ZM19.7639 9L18.7639 7H13.2361L12.2361 9H5V25H27V9H19.7639Z" fill="black"/>
</svg>
