<svg width="32" height="32" viewBox="0 0 32 32" fill="none" xmlns="http://www.w3.org/2000/svg">
<path fill-rule="evenodd" clip-rule="evenodd" d="M30 16C30 23.732 23.732 30 16 30C8.26801 30 2 23.732 2 16C2 8.26801 8.26801 2 16 2C23.732 2 30 8.26801 30 16ZM19.6307 13.2145C20.0206 13.0206 20.4592 13.0206 20.8004 13.2145L24.7482 15.4924C25.1381 15.7348 25.333 16.1225 25.333 16.5102V21.1146C25.333 21.5508 25.0894 21.9385 24.7482 22.1324L20.8004 24.4103C20.4105 24.6042 19.9719 24.6042 19.6307 24.4103L15.6829 22.1324C15.293 21.8901 15.0981 21.5023 15.0981 21.1146V19.5152L16.9501 18.4489V19.9999C16.9501 20.4361 17.1938 20.8238 17.535 21.0177L19.6307 22.2293C20.0206 22.4232 20.4592 22.4232 20.8004 22.2293L22.8474 21.0177C23.2373 20.7753 23.4323 20.3876 23.4323 19.9999V17.5765C23.4323 17.1403 23.1886 16.7526 22.8474 16.5587L20.7517 15.347C20.3618 15.1532 19.9231 15.1532 19.582 15.347L16.9014 16.898L15.0493 17.9643L12.3687 19.5152C11.9788 19.7091 11.5402 19.7091 11.199 19.5152L7.25124 17.2372C6.86133 16.9949 6.66638 16.6072 6.66638 16.2194V11.6636C6.66638 11.2758 6.86133 10.8881 7.25124 10.6942L11.2478 8.36781C11.6377 8.17394 12.0763 8.17394 12.4175 8.36781L16.3165 10.6458C16.7064 10.8881 16.9014 11.2758 16.9014 11.6636V13.3114L15.0493 14.3777V12.7783C15.0493 12.3421 14.8056 11.9544 14.4645 11.7605L12.3687 10.5004C11.9788 10.3065 11.5402 10.3065 11.199 10.5004L9.10328 11.712C8.71338 11.9544 8.51843 12.3421 8.51843 12.7298V15.1532C8.51843 15.5894 8.76212 15.9771 9.10328 16.171L11.199 17.4311C11.5889 17.625 12.0276 17.625 12.3687 17.4311L15.0493 15.8317L16.9014 14.8139L19.6307 13.2145Z" fill="black"/>
</svg>
