<svg width="32" height="32" viewBox="0 0 32 32" fill="none" xmlns="http://www.w3.org/2000/svg">
<path d="M20.5263 4C20.633 5.39335 20.1924 6.77342 19.298 7.84712C18.8697 8.37982 18.3261 8.80838 17.7082 9.10054C17.0903 9.3927 16.4141 9.54084 15.7306 9.53381C15.687 8.86376 15.7759 8.19169 15.9922 7.55601C16.2085 6.92033 16.5479 6.33352 16.9912 5.82911C17.8976 4.7966 19.1599 4.14352 20.5263 4Z" fill="black"/>
<path d="M23.0189 14.1412C22.5648 14.9413 22.3204 15.8432 22.3086 16.7632C22.3097 17.7979 22.6154 18.8095 23.1875 19.6716C23.7597 20.5338 24.573 21.2085 25.526 21.6116C25.1513 22.8288 24.5865 23.9792 23.8525 25.02C22.8668 26.4945 21.8332 27.9351 20.1928 27.9617C19.4127 27.9797 18.8861 27.7554 18.3373 27.5216C17.7649 27.2778 17.1684 27.0237 16.2351 27.0237C15.2452 27.0237 14.622 27.286 14.021 27.5389C13.5016 27.7575 12.9988 27.9691 12.2901 27.9985C10.7279 28.0564 9.53398 26.4247 8.51241 24.964C6.47059 21.981 4.88067 16.5573 7.01219 12.8669C7.50426 11.9827 8.21698 11.241 9.08092 10.7141C9.94485 10.1872 10.9305 9.89312 11.9419 9.86045C12.828 9.84222 13.6782 10.1837 14.4236 10.4831C14.9936 10.7121 15.5024 10.9164 15.919 10.9164C16.2852 10.9164 16.7798 10.7202 17.3561 10.4914C18.264 10.1311 19.375 9.69016 20.5071 9.80899C21.3747 9.83613 22.224 10.0652 22.9876 10.478C23.7512 10.8908 24.408 11.476 24.9058 12.187C24.1221 12.6689 23.473 13.3411 23.0189 14.1412Z" fill="black"/>
</svg>
