<svg width="32" height="32" viewBox="0 0 32 32" fill="none" xmlns="http://www.w3.org/2000/svg">
<path fill-rule="evenodd" clip-rule="evenodd" d="M18.5241 7.21376L18.5296 7.20709C18.9959 6.64733 19.3107 5.98526 19.4538 5.28357C18.8012 5.54197 18.2132 5.95283 17.7426 6.48887L17.7424 6.48918C17.3859 6.89487 17.1129 7.36685 16.9389 7.87812C16.8828 8.04313 16.8373 8.21119 16.8026 8.38125C16.9658 8.33151 17.1256 8.26983 17.2808 8.1965C17.7619 7.96901 18.1852 7.63531 18.5186 7.22053L18.5241 7.21376ZM16.7264 9.4332C16.6212 9.45579 16.5153 9.47463 16.4088 9.48967C16.1848 9.5213 15.9581 9.53615 15.7306 9.53381C15.7139 9.27718 15.7167 9.02026 15.7385 8.7652C15.7452 8.68795 15.7536 8.61087 15.7637 8.53402C15.8075 8.2021 15.8838 7.87449 15.9922 7.55601C16.2085 6.92033 16.5479 6.33352 16.9912 5.82911C17.6738 5.05158 18.5582 4.48922 19.5368 4.1976C19.8578 4.10196 20.1889 4.03544 20.5263 4C20.5523 4.33855 20.5459 4.6763 20.5085 5.00908C20.3921 6.0459 19.9751 7.0343 19.298 7.84712C18.8697 8.37982 18.3261 8.80838 17.7082 9.10054C17.3938 9.24921 17.0642 9.36059 16.7264 9.4332ZM20.5071 9.80899C19.375 9.69016 18.264 10.1311 17.3561 10.4914C16.7798 10.7202 16.2852 10.9164 15.919 10.9164C15.5024 10.9164 14.9936 10.7121 14.4236 10.4831C13.6782 10.1837 12.828 9.84222 11.9419 9.86045C10.9305 9.89312 9.94485 10.1872 9.08092 10.7141C8.21698 11.241 7.50426 11.9827 7.01219 12.8669C4.88067 16.5573 6.47059 21.981 8.51241 24.964C9.53398 26.4247 10.7279 28.0564 12.2901 27.9985C12.9988 27.9691 13.5016 27.7575 14.021 27.5389C14.622 27.286 15.2452 27.0237 16.2351 27.0237C17.1684 27.0237 17.7649 27.2778 18.3373 27.5216C18.8861 27.7554 19.4127 27.9797 20.1928 27.9617C21.8332 27.9351 22.8668 26.4945 23.8525 25.02C24.5865 23.9792 25.1513 22.8288 25.526 21.6116C24.573 21.2085 23.7597 20.5338 23.1875 19.6716C22.6154 18.8095 22.3097 17.7979 22.3086 16.7632C22.3204 15.8432 22.5648 14.9413 23.0189 14.1412C23.3656 13.5303 23.8261 12.9939 24.3733 12.5599C24.5427 12.4255 24.7205 12.301 24.9058 12.187C24.7118 11.9099 24.4936 11.6519 24.2544 11.4158C23.8798 11.046 23.4535 10.7299 22.9876 10.478C22.224 10.0652 21.3747 9.83613 20.5071 9.80899ZM23.4507 12.0306C23.1684 11.7685 22.8532 11.5421 22.512 11.3577C21.8852 11.0188 21.188 10.8308 20.4758 10.8085L20.4391 10.8074L20.4027 10.8035C19.5556 10.7146 18.6749 11.0439 17.725 11.4209L17.7067 11.4281C17.4324 11.537 17.1384 11.6537 16.8649 11.7417C16.5943 11.8287 16.2601 11.9164 15.919 11.9164C15.5599 11.9164 15.2148 11.8306 14.9256 11.7386C14.6396 11.6476 14.3407 11.5275 14.0694 11.4185L14.0508 11.4111C13.2738 11.0989 12.6146 10.8483 11.9681 10.8601C11.1315 10.8882 10.3163 11.132 9.60159 11.5679C8.88513 12.0048 8.29407 12.6199 7.886 13.3532L7.88212 13.3602L7.87813 13.3671C6.97165 14.9365 6.8194 16.9506 7.1821 19.007C7.54312 21.054 8.39499 23.0206 9.33484 24.3951C9.85181 25.1342 10.3494 25.8209 10.8829 26.3216C11.415 26.821 11.8543 27.0133 12.251 26.9993C12.7613 26.9777 13.1167 26.8346 13.6331 26.6172L13.963 27.401L13.6331 26.6172L13.6462 26.6117C14.2678 26.3501 15.0432 26.0237 16.2351 26.0237C17.3728 26.0237 18.1235 26.3436 18.7143 26.5953L18.7292 26.6016C19.2695 26.8318 19.6227 26.9746 20.1698 26.962L20.1766 26.9618C20.6735 26.9538 21.116 26.7415 21.5857 26.3029C22.0758 25.8452 22.5219 25.211 23.0211 24.4642L23.0281 24.4539L23.0353 24.4437C23.549 23.7152 23.9723 22.9283 24.2968 22.1003C23.5239 21.6255 22.86 20.9866 22.3543 20.2246C21.6736 19.1988 21.3099 17.9953 21.3086 16.7642L21.3086 16.7503L21.3087 16.7503C21.3227 15.6617 21.6118 14.5944 22.1492 13.6476C22.4942 13.0397 22.9344 12.4942 23.4507 12.0306Z" fill="black"/>
</svg>
