<svg width="32" height="32" viewBox="0 0 32 32" fill="none" xmlns="http://www.w3.org/2000/svg">
<path fill-rule="evenodd" clip-rule="evenodd" d="M30 16C30 23.732 23.732 30 16 30C8.26801 30 2 23.732 2 16C2 8.26801 8.26801 2 16 2C23.732 2 30 8.26801 30 16ZM19.6683 11.8278H24.1203V7.87976H19.6683C16.6723 7.87976 14.2363 10.3158 14.2363 13.3118V13.8158H18.1843V13.3118C18.1843 12.4998 18.8563 11.8278 19.6683 11.8278ZM12.7521 20.7319C13.5641 20.7319 14.2361 20.0599 14.2361 19.2479V17.7639H18.1841V19.2479C18.1841 22.2439 15.7481 24.6799 12.7521 24.6799C9.75607 24.6799 7.32007 22.2439 7.32007 19.2479C7.32007 16.2519 9.75607 13.8159 12.7521 13.8159L14.2363 13.8158L14.2361 17.7639H12.7521C11.9401 17.7639 11.2681 18.4359 11.2681 19.2479C11.2681 20.0599 11.9401 20.7319 12.7521 20.7319ZM18.1843 13.8158L22.1321 13.8159V17.7639H18.1841L18.1843 13.8158Z" fill="black"/>
</svg>
