<svg width="32" height="32" viewBox="0 0 32 32" fill="none" xmlns="http://www.w3.org/2000/svg">
<path fill-rule="evenodd" clip-rule="evenodd" d="M5.33333 0C2.38781 0 0 2.38782 0 5.33333V26.6667C0 29.6122 2.38782 32 5.33333 32H26.6667C29.6122 32 32 29.6122 32 26.6667V5.33333C32 2.38781 29.6122 0 26.6667 0H5.33333ZM14.7053 16.9277L10.4106 12.6547L9.00001 14.0725L15.7053 20.744L22.4106 14.0725L21 12.6547L16.7053 16.9277L16.7053 4H14.7053L14.7053 16.9277ZM4 20H6V25.3333H25.3333V20H27.3333V27.3333H4V20Z" fill="black"/>
</svg>
